<?xml version="1.0" encoding="iso-8859-1"?>
<!-- Demetory // Image 404 -->
<svg version="1.1" id="img_404" xmlns="http://www.w3.org/2000/svg" viewBox="0 0 733.05 965.55">
    <g id="Boy">
        <path d="M632,526.74c-2.42,2.69-4.75,5.47-7.27,8.06-12.16,12.53-23.37,26.25-36.84,37.18-14.78,12-31.4,21.88-47.78,31.75C535,606.82,528,606.89,521,608.54c1.42,10.93,2.4,22,4.39,32.89,3,16.35,6.71,32.56,10.1,48.84.38,1.79,1.06,3.65.84,5.39-.16,1.32-1.51,2.5-2.33,3.75-.92-1-2.45-1.91-2.68-3.07-4.21-20.68-8.4-41.38-12.26-62.13-1.49-8-2.15-16.14-3.27-24.84-6.43.74-12.82,1.34-19.14,2.38-1.05.17-2.4,2.17-2.58,3.46-2.48,18.13-4.7,36.29-7.22,54.4a17.53,17.53,0,0,1-3.11,7.63c-3.24,4.42-6.59,8.92-10.64,12.55-11.72,10.51-15.31,24.62-17.91,39.1-3.56,19.8-6.91,39.64-9.73,59.55-1.15,8.08-2.61,16.66,3.29,24,.62.78,1,1.74,1.68,2.47,6.65,7.42,13,15.1,20.13,22.07,3.4,3.36,8,5.64,12.3,7.91,4.1,2.16,8.68,3.39,12.8,5.52,5.5,2.85,8.24,8,7.22,12.44-1.32,5.78-3.35,7.12-11.52,7.59.38,13-8,18.53-19.7,15.32-5.5,10.11-9.78,11.72-20.68,8.29a7.13,7.13,0,0,0-5.21.76c-6.28,3.78-13.28,3.64-19.1-.82a51.55,51.55,0,0,1-5.48-4.35c-11.14-11.17-22.09-22.53-33.37-33.55-3-2.94-7-4.91-10.48-7.32-4.44-3-9.24-5.66-13.23-9.21-4.79-4.25-4.06-10.13-1.81-15.27,4-9.13,8.52-18,13.15-26.89,2.89-5.5,3.24-10.18.72-16.38-3.26-8-4-17.06-6-25.62-5.19-22.13.67-43,7.65-63.55,4.13-12.15,9.38-23.94,8.8-37.13a134.53,134.53,0,0,0-1.42-15.28q-5.38-33.76-11.09-67.48c-1.6-9.51-3.59-19-5.1-28.48-.25-1.55,1.07-3.35,1.66-5,1.1,1.55,2.9,3,3.2,4.67,6,33.39,12.19,66.77,17.58,100.27a73,73,0,0,1-3.16,35c-3.3,9.77-6.51,19.56-9.84,29.32-6.58,19.27-5.66,38.69-1.05,58.11,1.45,6.08,4.47,11.81,5.58,17.92a23.32,23.32,0,0,1-1.28,12.71c-4.2,9.76-9.55,19-14.09,28.64C364.35,832,366.31,837.2,373,841c2,1.14,4.38,1.73,6.3,3,4.39,2.87,8.72,5.87,12.86,9.09a71.53,71.53,0,0,1,6.37,6.31c7.62,7.64,15.19,15.31,22.87,22.89a104.56,104.56,0,0,0,8.56,7.61c3.79,3,7.35,3,12.4.26a62.86,62.86,0,0,1-3.83-7.93c-.47-1.4.27-3.21.46-4.83,1.38.88,3.61,1.49,4,2.68,2.1,6.57,7.59,8.31,13.19,10.22,4.23,1.46,6.72-.9,8.78-3.82.54-.77.06-2.9-.68-3.81-1.45-1.78-3.68-2.94-5.09-4.75-1.13-1.46-1.52-3.5-2.24-5.28,1.86.45,3.87.59,5.53,1.43,4,2,7.55,4.75,11.61,6.41,5.27,2.15,9.6.27,11.27-4.05,1.79-4.64-.14-8.69-4.85-11.44-2-1.17-5.19-4.33-4.9-4.82,2.21-3.66,4.87-.56,7.22.35,2.92,1.14,5.53,3.21,8.51,4,1.68.45,5.11-.37,5.47-1.41.61-1.74.11-4.87-1.18-6.08-2.34-2.21-5.42-4.3-8.5-4.93-12.9-2.66-21.32-10.78-28.26-21.28-2.08-3.13-5.14-5.66-8-8.22-8.08-7.31-11.93-15.66-11.38-27.21,1.38-28.33,8-55.65,14.24-83a49.75,49.75,0,0,1,12.46-22.89c19.58-21.1,14.46-13.24,17.92-42.73,1.17-9.91,2.65-19.8,4.43-29.61,1.65-9.09,3.67-18.13,5.9-27.1s-.5-15.87-7.93-21.27a158,158,0,0,0-69.38-28.83c-9.85-1.54-19.83-2.42-29.78-3.18-12.79-1-19.32-6.76-20-19.65-.33-5.87.82-11.85,1.58-17.74,1.7-13.26,7.4-25.1,13.46-36.79.38-.73.52-1.75,1.11-2.2a29.67,29.67,0,0,1,3.84-2.21c.25,1.47,1.23,3.42.63,4.32-4.08,6.17-.29,10.1,3.45,14.25,7.64-8.76,7.58-19.42-3.36-27.6-9.63-7.2-18.95-14.56-30.65-19.23-13-5.18-21.05-16.11-21.32-31.43-.1-5.59-2.38-11.13-2.51-16.72-.17-7,.71-14.05,1.41-21,.51-5.1,1.76-10.12,2.17-15.22,1.23-15.09,2.21-30.2,3.28-45.31a75.3,75.3,0,0,0,.58-8.46c-.59-14.32,3.2-27.6,8.78-40.62,5.19-12.12,10-24.51,18.88-34.43a222.64,222.64,0,0,1,20.77-20,220.21,220.21,0,0,1,19.26-14.21c10.41-7.13,21-14,31.48-21,1.65-1.1,3.23-2.3,4.19-3-.95-6.08-1.31-11.69-2.85-17a14.41,14.41,0,0,0-5.73-7.12c-7.1-4.71-10.21-11-9.8-19.43.2-4.11-.76-8.27-.77-12.42,0-1.5,1.24-3,1.91-4.5,1.05,1.24,2.81,2.38,3,3.74a78.73,78.73,0,0,1,1,13.87c-.18,5.86,1.64,10.46,6.61,13.6,6.23,3.92,10.27,8.91,9.17,16.81a6.69,6.69,0,0,0,.53,3.41c7.95,18,18.17,34,37.15,42.49,3.91,1.74,7.22,5,11.22,6.38,5.24,1.81,10.87,2.56,16.37,3.54,30.15,5.39,57.49-2.94,83.06-18.09A68.82,68.82,0,0,0,613.24,168c6.21-7.64,6.83-16.75,1-26.37-6.42,2.84-13.18,5.47-19.6,8.78-4,2.09-4.26,5.84-2.42,9.93,3.41,7.57,1,12.33-7.06,14.4a59.46,59.46,0,0,1-9.29,1.86c-1.08.1-2.29-1.28-3.45-2,.8-.94,1.43-2.39,2.42-2.71,3.15-1,6.47-1.54,9.67-2.43,3.54-1,4.82-2.92,3.15-6.71-3.81-8.67-1.36-14.71,7.35-18.56,6.24-2.77,12.47-5.61,18.9-7.9,10.14-3.6,14.87-11.52,18.11-21,.48-1.4,1.91-2.47,2.9-3.69.66,1.54,2.16,3.31,1.81,4.58-1,3.79-2.18,7.8-4.39,11-3,4.31-7.21,7.76-10.51,11.9a5.88,5.88,0,0,0-.53,5.16c4.43,8.83,2,17-2.34,24.77-2.13,3.82-5.69,6.84-8.75,10.39,3.34,2.89,6.71,5.59,9.83,8.54,9.92,9.4,15.81,21,20.14,33.94a381.11,381.11,0,0,0,14.88,36.4c5.3,11.66,12.38,22.59,16.85,34.53,3.93,10.48,5.84,21.82,7.75,32.93,4.58,26.7,2.48,53.42-.41,80.13-.26,2.44,1,5.3,2.27,7.59,1.16,2.13,3.15,3.86,4.93,5.6,13.58,13.33,12.45,28.77,6.28,44.79-.63,1.65-3,3.88-4.43,3.75-5.53-.54-7.73,3.67-10.93,6.54-1.3,1.18-2.91,3.33-4.08,3.14-6.48-1-9.56,4.72-14.43,6.75a3.4,3.4,0,0,0-1.58,2.24,59.23,59.23,0,0,1-16.74,31c-2.5,2.47-3.55,4.49-2.58,8.48,1.1,4.5.16,9.56-.2,14.36-1.23,16.42-2.4,32.86-4,49.25-.51,5.24-2.25,10.37-3.59,15.51-3.46,13.26-7,26.91-4,40.34,3.06,13.85-1.06,25.33-6.14,37.48-2.25,5.38-2.61,12.09-2,18,2.13,21.8,1.12,43.51-4.71,64.4-3.81,13.66-1,25.21,4.92,36.66,2.36,4.55,6.84,8.08,10.58,11.84,4.57,4.6,9.35,9,14.14,13.38a5.58,5.58,0,0,0,3.31,1.33c7.29.21,9.79,2.31,11.59,9.73a5,5,0,0,0,2.06,3c4.94,2.72,5.91,7.2,6.23,12.26a8.91,8.91,0,0,0,1.85,5.19c2.94,3.15,3.89,6.24,2.23,10.41a9.86,9.86,0,0,1-8.65,6.6c-11.82,1.07-23.79,1.54-35.14-2.42a33.78,33.78,0,0,1-13.13-8.7C602.64,853,589.73,851,575.32,853.48c-7.74,1.34-14.81-1.32-21.79-4a7.33,7.33,0,0,1-3.95-3.58c-5.05-13.34-11.29-26.5-5.72-41.4,3.79-10.12,2-19.92-2.63-29.43-3.29-6.73-6.16-13.67-9.58-20.33-6.86-13.37-5.66-27.16-1.85-40.84,1.09-3.92,4.64-7.21,7.33-10.58.55-.69,2.28-.42,3.47-.6a23.38,23.38,0,0,1,.26,3.62c0,.58-.65,1.14-1,1.68-10.37,14.47-10,29.67-3,45.26,3.54,7.9,7.63,15.57,10.89,23.58,3.58,8.79,5.19,18.07,1.58,27.23-5.36,13.61-.36,25.82,4.4,38.12a5.24,5.24,0,0,0,3,3A135.09,135.09,0,0,0,574.68,848c7.46.47,15.09-.7,22.43.35,4.47.64,8.58,4.06,12.76,6.38a14,14,0,0,1,3.39,3c13,14.47,29.9,14.24,47.11,12.43,1.87-.2,3.94-2.62,5-4.53.39-.72-1.73-4-3-4.23-13.77-2.17-17.36-13.45-21.08-24A32.4,32.4,0,0,0,631,822.53c-2.32-1.9-4.42-4.09-6.81-5.88-11-8.24-14.81-20.79-18.58-32.88-1.47-4.68,1-10.75,2.17-16.07,4.55-20.26,7.41-40.73,5.17-61.42-1.37-12.58.26-24.09,6.1-35.19,3.47-6.59,3.89-13.5,2.25-20.85-3.11-14-1.12-28.11,2.68-41.49,5.34-18.81,7-37.9,8.06-57.19q.65-12.16,1.24-24.34ZM484.51,492.67c-.59-4.55.29-9.67-1.85-12-6.94-7.53-12.18-16.39-20.59-22.92-10.81-8.39-21-17.87-25.38-31.93a269.27,269.27,0,0,0-11-28.88c-1.48-3.35-4.49-7.17-7.71-8.37-6-2.25-7.34-6-6.7-11.5.21-1.81.18-3.66.5-5.46,1.39-7.85,3.87-15.66,4.05-23.54.23-9.73-1.59-19.49-2.15-29.26-.12-2.1.69-5.29,2.19-6.26a120.35,120.35,0,0,1,15.49-8.07c1.12-.51,2.9.39,4.37.64-.72,1.31-1.13,3.13-2.24,3.81a88.77,88.77,0,0,1-11.06,5.79c-3.24,1.41-3.75,3.32-3.08,6.68,2.68,13.35,3.18,26.67-.49,40-1.4,5.07-1.44,10.51-2.12,15.78-.41,3.16.74,4.93,3.74,6.6,3.33,1.86,7.08,4.54,8.58,7.81,4.52,9.79,8.16,20,11.89,30.14,2.89,7.87,6.52,15,12.54,21.22,9.19,9.55,20.4,16.83,28.35,27.94,4.64,6.47,8.33,12,7.12,20a12,12,0,0,0,.36,2.58c17.67.63,35.27,1.41,53.18-.41-2.21-6.27-3-6.38-7-2.44-.49.49-2.07-.12-3.14-.22.59-2.2.49-5.25,1.92-6.43,3.5-2.89,10.06-1.44,11.49,2.82,2,5.82,5.53,5.57,10.06,4.42,2.25-.57,4.59-.79,6.82-1.4,16.72-4.51,31.87-12.49,46.61-21.32,1-.6,1.65-2.3,1.86-3.59,1-6.06,2-12.14,2.56-18.24,1.67-17.53,4.81-35.19.19-52.59-3.1-11.64-6.16-23.64-15.88-32.21a5.13,5.13,0,0,1-1.77-3.41c.32-11.24-3.9-21.54-6.4-32.2-1.37-5.82-.78-11.11,3.94-15.58a33.3,33.3,0,0,0,10.13-19.09c.88-5.41,1.36-10.89,2.39-16.28.27-1.45,1.87-2.65,2.86-4,.75,1.44,2,2.83,2.12,4.33a31,31,0,0,1-.53,7c-1.4,10.11-3.13,20.08-10,28.31-.71.85-.36,3.65.51,4.59,6.64,7.18,13.6,14.07,20.3,21.2,1.34,1.43,2,3.52,3,5.3l-6.32,1.62c2.47,6.86,4.53,13.88,7.46,20.51,5.81,13.09,11.44,25.93,12,40.8.71,18.08,0,35.07-15.75,48.32,2,1.14,3.88,2.06,5.69,1.89,4.27-.42,8.49-1.92,12.74-2,6.91-.05,10.45,4,10.68,10.77.15,4.15.56,8.3.74,12.45.14,3.18,1.44,4.18,4.5,3,5.82-2.34,8.22-5.45,8-11.63-.13-3.05-1.23-6-1.68-9.09a14.65,14.65,0,0,1,.38-3.63c1.31.35,3.35.31,3.78,1.13a32.58,32.58,0,0,1,3,8.18c.54,2.43.35,5,.55,8.76l9.73-8.31c-1-3.86-2.25-7.48-2.85-11.2-.23-1.43,1-3.09,1.5-4.65,1.15,1.34,2.66,2.51,3.36,4,1.47,3.24,2.51,6.67,4,10.85,7.38-10,7.55-27.36,1.15-35.55-3.49-4.46-7.47-8.52-10.91-13-1.31-1.7-2.55-4.14-2.43-6.16.66-11,1.77-21.9,2.7-32.84,1.92-22.59-.33-44.88-4.84-67-3.45-17-12.71-31.41-20.27-46.53-6.58-13.14-13-26.22-16.68-40.54-4.36-16.81-14.82-29.38-28.85-39.41-11,8.93-23.87,14.06-36.81,18.88-7.12,2.65-14.67,5.57-22.08,5.72-15.91.32-31.86-1-47.78-1.86-1.84-.1-3.71-1.31-5.42-2.27-4.34-2.45-8.77-4.8-12.84-7.65-6.63-4.63-13.51-9.09-19.33-14.63-5.41-5.15-9.57-11.61-14.87-18.23-11.15,7.62-23.09,15.69-34.92,23.93-6.28,4.37-12.55,8.79-18.46,13.63-6.42,5.25-13.5,10.21-18.38,16.72-16.5,22.06-28,46.21-28.75,74.6-.46,16.45-2,32.89-3.51,49.3-.7,7.87-2.51,15.63-3.49,23.48-.61,4.91-1.21,10-.75,14.84.71,7.59,2.89,15.06,3.42,22.65.83,11.72,8.28,19.46,17.47,22.92,12.14,4.56,21.6,12.36,31.57,19.68,11.21,8.21,14.95,20.19,7.23,32.22a17.24,17.24,0,0,0-2.93,7.89c-.19,3.61.81,7.29,1.3,11l1.8-.11a65,65,0,0,1,2.4-8.49c.49-1.17,2.27-1.8,3.46-2.68.5,1.28,1.48,2.59,1.39,3.83a37.22,37.22,0,0,1-1.51,6.3c-1.57,6.29,0,9.24,6.9,12.21.3-3,.25-6,1-8.79a12.5,12.5,0,0,1,3.32-5.21c.62-.63,2.35-.16,3.57-.18a23.74,23.74,0,0,1-.15,3.59c-.53,2.83-1.87,5.67-1.72,8.45a11,11,0,0,0,12,10.73c5.38-.32,5.68-5.51,7.24-9.35a30.69,30.69,0,0,1,2.26-3.91,24.3,24.3,0,0,1,2.44,4.19,7.87,7.87,0,0,1-.15,3.46c-.77,5.31.43,7.31,5.08,8.29,6.68,1.42,9.68.09,10.94-5.16,1.55-6.47,2.46-13.12,4.46-19.44,1.25-3.94,3.87-7.48,6.17-11,.43-.66,2.26-.4,3.44-.56.1,1.2.5,2.48.2,3.57-.36,1.32-1.31,2.48-2.24,4.12Zm47.74,7.75c.81,1.89,1.52,3.56,2.26,5.22,10.13,22.64,20.32,45.25,30.3,68,.69,1.57-.1,3.81-.21,5.73-1.48-1.22-3.64-2.13-4.36-3.7-11.41-25.12-22.65-50.33-34-75.63H514L557,587.54,580.64,572a74.21,74.21,0,0,1-4.33-6.25c-11.16-20.46-22.46-40.85-33.21-61.53C540.43,499,537.71,497.64,532.25,500.42Zm95.48-62c.55-1.2,1-2.09,1.36-3,5-11.65,3.3-23.77,2.75-35.88-.37-8.22-3.1-15.57-6.39-22.85-2.68-5.92-6.05-11.6-7.94-17.75-2-6.37-6.3-13-1.54-19.51l-22.65-19.24,1.21-2c.37,3.36.55,6.74,1.16,10.06,1.66,9.11,3.46,18.2,5.32,27.28a7.53,7.53,0,0,0,1.84,3.87c9.53,8.89,12.62,21,15.79,32.81,2,7.52,1.86,15.69,2.25,23.6.34,6.91.07,13.85.07,20.51Zm-145.55,60,50.37,102.74,9.36-4c-1.13-2.23-1.87-3.71-2.63-5.17-15.07-29-30.34-57.82-45.07-86.95C491.55,499.79,488.48,497.62,482.18,498.44Zm70.17,91.81c-.91-2-1.62-3.65-2.41-5.27q-19.26-39.16-38.53-78.33c-4-8-4-8-14.08-6.55l48.93,94Zm-81-95.43-1,1.51a10.24,10.24,0,0,0,.44,1.39q24.56,51,49.06,102c1.72,3.59,3.82,2.75,6.71,1.58-.62-1.44-1.14-2.81-1.78-4.11q-24.12-49.28-48.37-98.48C475.56,497,473.07,496.11,471.35,494.82ZM516,603.66c-16.72-34.71-33.2-68.9-49.68-103.09l-1.84.4c.33,2.69.11,5.61,1.1,8a155,155,0,0,0,7.73,16.2c8.79,16.11,14.11,34,25.34,48.89a7.69,7.69,0,0,1,1.26,4.22c.17,8.26.05,16.53,6.18,23.24.65.71.54,2.12.88,3.66Zm29.63-105.5,38.32,70.73,5.65-4.66L553.08,497ZM559,497l34.29,63.21,6-4.45c-10-19.06-19.68-37.42-29.32-55.78C566.73,493.77,566.75,493.76,559,497Zm12.89-4.56,30.72,58.42,6-4.93-28.09-56.45Zm23.45-9.66c8.48,16.45,16.64,32.3,24.83,48.18,5.13-3.14,6-6.17,3.11-11.25-6.62-11.71-12.47-23.85-18.65-35.81-.81-1.57-1.76-3.07-2.78-4.84Zm27.72-16.66c-6.05,5.46-6,5.46-2.75,11.44q7,12.68,13.92,25.38c1.47,2.68,3,5.35,5,8.95l5.84-8.58Zm-6.22,69.71L590.55,484.9l-5.11,2.6c9,18.12,17.72,35.68,26.75,53.84ZM383,474.65c-2.67,3.47-3.9,5.92-1.35,10,8.88,14.23,17.78,28.51,25.45,43.39,2.94,5.7,6.44,6.19,12.11,6.39l-4.31-6.84c-2.66-4.21-6.22-8.12-7.77-12.7-2-5.9-6.17-9.74-10.54-13.06a17.77,17.77,0,0,1-7.15-14.58C389.31,481.65,385.8,478.83,383,474.65ZM635.5,515.06c-1.66-2.64-3.15-4.81-4.43-7.11-5.63-10.18-11.36-20.33-16.74-30.65-2.22-4.26-4.31-4.39-7.6-.81l23.09,44.68ZM483.77,559l-21.14-43.61c-5,4.41-3.26,8.09-1,12.09,4.38,7.83,8.82,15.67,12.47,23.84C475.94,555.47,478.82,557.15,483.77,559ZM648,497.87l4.69-11.73-2.32.5c-2.1-2-4.72-3.77-6.21-6.19a138,138,0,0,1-8.89-16.67c-2.06-4.7-4.5-4.8-8.29-2.06a24.19,24.19,0,0,0,1.09,2.36C634.32,474.8,640.65,485.5,648,497.87ZM402.29,533.38l1.37-1.5Q390.8,510.17,378,488.45l-1.7.41c.37,2.31.16,4.94,1.23,6.87q9.28,16.75,19.16,33.18C397.81,530.83,400.38,531.91,402.29,533.38Zm28.52-11.78c3.69,4.89,8.41,9.18,10.55,14.5,2.38,5.94,7.05,5.41,11.82,6.43-5.35-8.14-10.71-16.27-16-24.29ZM436,538.46c-3.65-8.59-17.58-23.4-23.3-24,3.6,5.61,7.71,10.39,10,15.93C425.31,536.92,430.31,537.58,436,538.46Zm12.07-14c1.11,1.91,2,3.45,2.91,5,2.47,4.29,6,8.33,7.12,12.95,1.35,5.41,4.78,6.7,9.11,8.29,0-.81.11-1.17,0-1.42-3.81-7.34-7.77-14.61-11.42-22C454.13,524,452,522.86,448.05,524.46Zm-73.57-23.41c-2.11,5.18,1.61,13.37,12.38,28.75.74,1,2.48,1.38,3.75,2l1-1C386,521.11,380.44,511.43,374.48,501.05ZM661.8,853.63c-1.51-2.61-2.62-5.63-4.69-7.68-1.28-1.27-4-1.08-7.21-1.79C652.7,849.93,654.34,854.47,661.8,853.63Zm-23.18-394.4c2.33,4.36,4.33,8.13,6.34,11.9C646.58,460.29,645.85,459,638.62,459.23Zm8.51,373.88-1.54,1.39c.85,2,1.7,3.91,3.08,7.11,1.55-2.34,3.45-4.44,3.13-4.85C650.64,835.24,648.75,834.28,647.13,833.11ZM374,518.51c1,4.38,1.18,9.26,6.67,10.8ZM498.29,599l-2.1,7,6.75-.47Z" transform="translate(-333.62 68.07)"/>
        <path d="M628.1,80.14c-4.56,8.75-8.9,17.49-13.64,26a65.3,65.3,0,0,1-7.42,10,4.7,4.7,0,0,1-3.79,1.34c-.81-.15-1.73-1.93-1.89-3.09-.84-6.08-1.08-12.26-2.27-18.27-.79-4-2.8-7.84-4-11-7.15,6.52-13.64,12.59-20.33,18.42-1.16,1-3.15,1.07-4.75,1.57,0-1.8-.47-3.7,0-5.38,1.91-7.53,4.26-15,6-22.53.57-2.42-.17-5.14-.38-9-7.72,6.51-14.46,12.25-21.29,17.9a27.88,27.88,0,0,1-4.22,2.46c0-1.78-.74-4,0-5.26,4.38-7.27,7.39-14.74,7.21-23.48-.09-4.81-2.43-7.28-6.5-8-3.86-.66-7.91-.1-11.83-.48-1.7-.17-3.3-1.37-4.95-2.11,1.5-1.12,3-3.22,4.51-3.21,6.53,0,13.3-1.26,19.26,3.27,3.55,2.7,5.36,5.69,4.88,10.14-.43,3.94-.66,7.91-1.1,13.55,3.77-3.25,6.42-5.79,9.34-8,1.54-1.15,4.24-2.82,5.2-2.24,2,1.21,4.42,3.75,4.43,5.75,0,7.08-.88,14.15-1.43,21.23-.05.64-.1,1.29-.18,2.45,5.58-2.43,8-6.93,10.33-11.68a29.13,29.13,0,0,1,3.39-4.54c1.59,1.28,3.53,2.29,4.71,3.88,4.66,6.26,7.83,13.09,7.38,21.23-.12,2.09.62,4.22,1,6.51.84-.24,1.49-.22,1.67-.5,7-11,14-21.88,15.56-35.28.19-1.71,1.44-3.3,2.19-5,1.75,1.34,4.25,2.3,5.1,4.06,3.72,7.7,5,15.82,2.58,24.26-.4,1.41-.66,2.86-1.36,5.94,5.69-3.71,10.31-6.63,14.81-9.75.6-.42.63-1.81.75-2.77a47.8,47.8,0,0,0,.43-5.47c.05-8.87,1.53-17,6.53-24.92,5.5-8.74,7.51-18.93,7.15-29.66-.29-8.34-4.45-13.91-9.75-19.36-1.06-1.1-1.52-2.77-2.26-4.18,1.66-.08,3.91-.91,4.9-.13,6,4.74,10.87,10.64,11.71,18.39a65.42,65.42,0,0,1-11.51,45.45A10.42,10.42,0,0,0,653,75.46c1.57,12.87-1.94,22.68-14.91,27.86-3.47,1.38-6.29,4.35-9.59,6.28-1.26.74-3,.63-4.56.91-.1-1.67-.61-3.44-.23-5,1.61-6.73,3.64-13.37,5.16-20.13C629.29,83.68,628.37,81.69,628.1,80.14Z" transform="translate(-333.62 68.07)"/>
        <path d="M454,108.75c-1.12,3.89-2.2,7.78-3.37,11.64-.31,1-.78,2.72-1.34,2.79a4.7,4.7,0,0,1-3.41-1.12c-6.45-6-8.37-14.17-9.85-22.41-.17-1,.94-2.22,1.45-3.34,1.11.76,2.82,1.3,3.23,2.33,1.19,3.09,1.81,6.4,2.79,9.58.56,1.84,1.4,3.59,2.38,6,3.44-6.72,6.34-12.74,9.61-18.55.81-1.44,2.8-2.21,4.25-3.29.09,1.9.79,4,.14,5.65-1.32,3.18-3.4,6.06,1.73,8.17,2.31-9.53,4.55-19,11.14-26.74,4.52-5.29,8.68-10.88,13.17-16.2.67-.8,2.21-.86,3.35-1.27.27,1.31,1.2,3,.7,3.85-2.42,4.23-3.44,8.48-1.55,13.56,2.24-9.72,4.58-19.13,17.3-21.17,1.18-6.22,6-10.49,11.5-14.89,4.4-3.54,3-9.93.77-14.33-3.79-7.31-7.88-14.92-13.6-20.66-10.65-10.67-22.42-20.26-34-29.92-3.29-2.74-5.19-5.1-4.46-9.57.46-2.82-.35-5.83-.36-8.76,0-1,.44-2.51,1.13-2.82s2.83.13,3,.65c.86,2.87,2.17,6,1.7,8.77-.71,4.12.43,6.38,3.78,8.63a166.63,166.63,0,0,1,41.08,39c5.64,7.6,9.86,16,8.4,25.87-.37,2.5-1.7,5.88-3.64,6.95-7.79,4.3-10.39,11.05-11.37,19.26-.32,2.75-2.35,5.3-3.6,7.94-1.36-2.41-2.71-4.82-4.07-7.22-.24-.41-.53-.79-1.77-2.64-2.07,4.17-4.61,7.37-5.2,10.9-1.25,7.51-1.36,15.2-2.21,22.79-.21,1.9-1.44,3.7-2.2,5.54-1.42-1.53-3.55-2.83-4.12-4.63-2.1-6.7-3.7-13.56-5.67-21.08-2.48,3.27-5.55,6.47-7.62,10.22a48,48,0,0,0-6.25,25.36,61.19,61.19,0,0,1-.08,9.48c-.15,1.29-1.64,2.43-2.52,3.64-1.07-1.19-2.64-2.22-3.12-3.62-1.12-3.26-1.54-6.77-2.61-10.06-.53-1.62-1.87-3-2.84-4.46Z" transform="translate(-333.62 68.07)"/>
        <path d="M542-10c5.76,0,11.53.16,17.29,0,5.12-.18,9.05,2,12.21,5.64,1,1.21,1.23,3.14,1.81,4.74a23.36,23.36,0,0,1-4.45,1.51C560.5,3,552.11,3.82,543.77,5a11.78,11.78,0,0,0-6.46,3.49c5,0,10,.31,15-.06,9.3-.7,16.48,2.94,22.15,10,2.65,3.32,2,5.42-2.1,6.45-5.11,1.3-10.27,2.35-16.79,3.82,2.89,1.33,4.76,1.86,6.19,3,1,.75,1.36,2.3,2,3.5-1.28.38-2.64,1.22-3.84,1a15.23,15.23,0,0,1-6.09-2.09c-4.5-3.1-9.12-3.16-14.2-2-1.25.3-2.91-1.19-4.39-1.85,1.13-1.16,2.08-3,3.4-3.37,8.57-2.07,17.21-3.79,25.82-5.64,1.11-.24,2.19-.56,4.05-1.05a15,15,0,0,0-13-6.42c-7.82.06-15.63.6-23.45.66-1.77,0-3.55-1.08-5.33-1.67.77-1.68,1.17-3.73,2.38-5,4-4.1,8.43-7.43,14.46-8.19,3.66-.46,7.24-1.65,10.86-2.52l-.22-1.75c-5.26.42-10.62.38-15.76,1.4-4.69.93-9.1,3.17-13.74,4.47-1.28.37-2.91-.54-4.39-.86.58-1.4.75-3.34,1.79-4.12,5.69-4.24,11.58-8.2,17.13-13.49-3.7,0-7.4,0-11.1,0s-7.67.26-11.47,0c-1.24-.1-2.36-1.61-3.54-2.47,1.12-.77,2.18-2.1,3.35-2.21,5-.47,10-.48,15-.82,4.45-.32,8.9-1.22,13.34-1.16,2.53,0,5,1.51,7.56,2.33-1.26,1.87-2.27,4-3.86,5.54a59,59,0,0,1-6.76,5Z" transform="translate(-333.62 68.07)"/>
        <path d="M473.46,47.61q8.06-9.82,16.13-19.65a14.53,14.53,0,0,1,3.09-3.21,3.24,3.24,0,0,1,3,0c.6.52.67,2.1.39,3a9.36,9.36,0,0,1-2,2.84c-8.21,10.06-16.37,20.16-24.73,30.1-1.06,1.26-3.16,1.65-4.78,2.43-.26-1.78-1.07-3.7-.67-5.32,2-8,4.28-15.89,5.91-24-5.63,4.7-8.71,10.77-11.16,17.36-1,2.66-3.27,4.84-4.95,7.24-.93-2.6-2.38-5.14-2.69-7.81-.88-7.81-1.31-15.68-1.91-23.51.21,0-.15-.06-.4.09-1.81,1.14-3.6,2.32-5.4,3.49a48.9,48.9,0,0,1-.72-6.79c.11-3.63.6-7.25.91-10.64-2.05-.78-4.75-1.05-5.12-2.13-.53-1.53.4-3.77,1.16-5.5a80.48,80.48,0,0,1,5.19-10.23c.78-1.25,2.65-1.83,4-2.72a20.23,20.23,0,0,1,.49,4.85c-.18,1.4-1.12,2.71-1.77,4.17,7.43,4-.56,9.61,2.1,15l8.3-11.29a41.57,41.57,0,0,1,4.22-5.55c.83-.8,2.52-.71,3.81-1,.05,1.35.49,2.84.05,4a15.25,15.25,0,0,1-2.79,4.11c-7.91,9.54-7.54,21.28-8.63,32.62a12.27,12.27,0,0,0,.56,3.3l21.19-26.17c.62-.77,1.17-1.83,2-2.18a16.14,16.14,0,0,1,3.92-.62c0,1.22.55,2.93-.05,3.59-7.82,8.54-6,20-9.88,29.78Z" transform="translate(-333.62 68.07)"/>
        <path d="M422,48.71l6.39,3.08c-1,2-1.85,4-2.94,6-3.06,5.46-6.2,10.88-9.38,16.43,4.75,2.41,7.17-.79,10.1-3.14,1.39-1.11,3.5-1.31,5.28-1.92-.57,1.86-.69,4.07-1.8,5.51C426,79.47,421.9,84,418,88.67l.87,1.16c2.29-.66,4.54-1.44,6.86-1.94a23.74,23.74,0,0,1,6.36-.71c.93.07,1.77,1.51,2.66,2.33-.77.76-1.41,1.9-2.33,2.2-3.3,1.09-6.82,1.58-10,2.89-2.74,1.13-5.09,3.19-7.74,4.62a22.28,22.28,0,0,1-4.29,1.32c-.21-1.36-1-2.93-.53-4,2.16-5.46,4.64-10.8,7.35-17-2.27,1.07-4,2.29-6,2.69s-3.76-.13-5.65-.25c.37-1.79.26-3.9,1.2-5.3,2.49-3.72,5.71-7,8.11-10.71,1.84-2.88,2.89-6.27,4.81-10.62-2.8,1.07-4.5,1.89-6.3,2.36a27.79,27.79,0,0,1-4.4.42c.35-1.46.3-3.22,1.12-4.32,3.58-4.74,7.93-9,11-14,1.68-2.82,1.79-6.87,1.76-10.35s-1.28-7.21-1.61-10.84a36.78,36.78,0,0,1,21-36.3c2.24-1.08,4.28-2.59,6.55-3.57,1.18-.51,2.67-.29,4-.41-.29,1.47-.09,3.46-1,4.29a25.78,25.78,0,0,1-6.31,3.91C431.37-6.69,424.23,5.64,427,20.73,428.81,30.92,429.66,40.49,422,48.71Z" transform="translate(-333.62 68.07)"/>
        <path d="M554.66-64.4c13.12,2.48,28.31,1.86,39.08,13.75,1.11,1.24,1.43,3.19,2.12,4.81-1.76-.26-4.11.13-5.2-.87-13.11-11.92-29.12-11.95-45.38-11.86-10.26.06-20.28.62-29.52,5.48-5.25,2.76-10.2,6.1-15.46,8.86-1.55.81-3.68.51-5.55.73.81-1.59,1.22-3.71,2.5-4.7,12.82-9.87,27-16,43.57-15.62C545.13-63.72,549.45-64.16,554.66-64.4Z" transform="translate(-333.62 68.07)"/>
        <path d="M602.76-44.15c4.34,1.66,8.74,2.6,12.3,4.86C626.88-31.8,635.7-21.64,640-8.1c.54,1.68-.33,3.81-.55,5.74-1.4-1.3-3.53-2.34-4.09-3.94A53.56,53.56,0,0,0,614-33.66C610.5-36,606.12-37,602.29-38.88c-1-.51-1.72-2.14-2-3.38C600.2-42.68,601.86-43.49,602.76-44.15Z" transform="translate(-333.62 68.07)"/>
        <path d="M535.49,151.86c-.42,1.83-.83,3.67-1.24,5.5-1.52-1-3.32-1.7-4.52-3-2.63-2.8-5.63-2.39-7.58,1.14a4.43,4.43,0,0,1-2.71,2.12c-.59.1-2.11-1.49-2.05-2.24.32-4.66-3.33-5.19-6.3-6.39-1.38-.56-3-.55-4.26-1.29s-1.82-2-2.7-3c1.34-.59,2.73-1.76,4-1.66a18.43,18.43,0,0,1,6.67,1.84c7,3.58,13.84,3.35,20.83-.22,5.19-2.66,8.8-1.21,9.57,3.46a3.84,3.84,0,0,1-1,2.93c-.42.41-1.75,0-2.65-.2-2.15-.33-4.28-.71-6.42-1.07Z" transform="translate(-333.62 68.07)"/>
        <path d="M607.09,53.11c-.32,1.3-.37,2.92-1.09,4.13A13.67,13.67,0,0,1,601.91,62c-.56.35-3.67-1.62-3.87-2.82-.4-2.34-.43-6.05,1-7.1,2.42-1.82,2.34-3.36,1.4-5.37-2.57-5.52-5.42-10.91-7.88-16.47-.68-1.53-.36-3.49-.51-5.25,1.59.79,3.67,1.18,4.68,2.44C602.68,34.86,605.71,43.55,607.09,53.11Z" transform="translate(-333.62 68.07)"/>
        <path d="M613.27,32c-.45.55-1.14,2.14-2,2.22a3.7,3.7,0,0,1-2.9-1.93A75.66,75.66,0,0,1,604.62,21c-1.67-7.3-6.41-12.16-12.09-16.41a9.88,9.88,0,0,1-2.67-2.2,41,41,0,0,1-2.37-5.22c1.87.41,4,.39,5.58,1.3,11.87,6.84,16.66,18.31,19.75,30.83C613,29.93,613,30.59,613.27,32Z" transform="translate(-333.62 68.07)"/>
        <path d="M615.8-2.71c-.41.5-1,1.85-1.79,2a3.22,3.22,0,0,1-2.82-1.26c-2.22-6.12-7.65-7.34-12.93-8.9-1.25-.37-2.76-.75-3.54-1.65-1.05-1.23-1.5-3-2.21-4.49,1.57,0,3.25-.4,4.71,0,3,.83,5.94,2.06,8.89,3.13A14.09,14.09,0,0,1,615.8-2.71Z" transform="translate(-333.62 68.07)"/>
        <path d="M599.4-32.6c3.27-.08,9.15,3.88,10,7,.22.79,0,2.28-.51,2.57-.82.46-2.6.65-3,.15-3.19-3.83-7.23-4.73-12-4.34-.89.07-1.91-1.34-2.86-2.07,1-.9,1.79-2.22,2.94-2.6A25,25,0,0,1,599.4-32.6Z" transform="translate(-333.62 68.07)"/>
        <path d="M560.22,823.64c1.36-3.36,2.06-5.76,3.31-7.84.48-.81,2.18-.9,3.33-1.32.36,1.14,1.37,2.64,1,3.37-2.31,4.25-1.67,7.84,1.42,11.39.5.57.29,2.78-.16,3-1,.45-3,.59-3.44,0C563.57,829.42,561.87,826.33,560.22,823.64Z" transform="translate(-333.62 68.07)"/>
        <path d="M560.46,192.86c-1.32.17-2.71.68-3.93.42a17.9,17.9,0,0,1-4-2c1.06-1,2-2.8,3.21-3a46.88,46.88,0,0,1,9.91-.18c1,.07,1.91,1.42,2.86,2.18-1,.85-1.94,2.13-3.11,2.46C563.86,193.18,562.12,192.86,560.46,192.86Z" transform="translate(-333.62 68.07)"/>
    </g>
    <g id="Girl">
        <path d="M741.52,460.41a9.28,9.28,0,0,1,1.58-1.2c1.47-.68,3-1.25,4.5-1.86.09,1.53.59,3.17.2,4.56-1.95,7-.69,13.39,4.18,20.75,1-3.64,2.07-6,2.27-8.45.62-7.73,6.06-11.94,11.43-16.18.77-.61,2.37-.18,3.58-.23-.12,1.33.24,3.07-.46,3.91-1.91,2.28-4.42,4.05-6.42,6.27s-3.74,4.31-.38,7.11c1.19,1,1,3.5,2,5a39.36,39.36,0,0,0,4.53,4.89c1.14-1.82,2.79-3.51,3.3-5.49,1.41-5.45,2.05-11.11,3.57-16.53.62-2.19,2.53-4.16,4.23-5.86.63-.62,2.34-.15,3.56-.17a13.13,13.13,0,0,1-.14,3.56c-1.85,5.75-4.06,11.39-5.71,17.2-.78,2.74,4.4,7.62,7.68,7.48,4.08-.18,3.64-3.36,4-6.2a152.26,152.26,0,0,1,2.8-17c.54-2.22,2.44-4.4,4.28-6,4.43-3.78,6.59-3.38,10.82.63A85.28,85.28,0,0,0,814,462c3.93,3,5.87,1,7.27-2.77,2.17-5.89.32-12.53-5.43-17.41-4.7-4-9.86-7.55-12-13.65a16.56,16.56,0,0,1-1.07-7.1c.92-8.09,2.34-16.12,3.38-24.2a31.8,31.8,0,0,0-5.41-22.32A34.77,34.77,0,0,1,795,353.75c.16-9-.11-18.08,1.36-26.86,1-6,4.58-11.67,7.24-17.37.37-.78,2.17-.88,3.31-1.3a11.88,11.88,0,0,1,.93,3.51,7.22,7.22,0,0,1-1.31,3.2c-8.12,13.2-7.06,27.75-6.09,42.23.22,3.26.41,7.09,2.16,9.57,10.31,14.57,10.56,30.34,6.75,46.85-1.3,5.65-3,11.46,1.6,16.59a20,20,0,0,0,3,3.24c11.35,7.87,16.95,17.69,10.74,31.51,10.55,6,21.83,7.63,33.36,8.07,28.59,1.12,56.78-2,84.68-8.2,3-.66,4.74-1.88,4.83-5.1.17-6.1.94-12.22.57-18.29-.53-8.62-1.69-17.21-2.89-25.78-1.46-10.42-4.78-20-13.13-27.2-2.65-2.28-3.24-5.28-3.2-8.94a116.43,116.43,0,0,0-1.57-18.8c-.56-3.67-.44-6.47,2.93-8.65,7.07-4.57,10.73-11.86,13.83-19.16,1.14-2.7.19-7-1.17-9.91-5.05-10.91-7.36-22.09-4.8-34,.33-1.57,1.93-2.86,3-4.27.66,1.5,2,3.09,1.85,4.47-.45,3.46,1,5.63,3.42,7.71,6.48,5.46,12.65,11.31,19.33,16.49,2.91,2.26,6.87,3.11,10.18,4.93,1.22.68,1.92,2.3,2.86,3.49-1.35.54-3.16,1.92-4,1.48a209.89,209.89,0,0,1-20-11.64c-4.26-2.92-7.69-7-11.5-10.62l-1.59.95c1.55,5,2.8,10.06,4.68,14.91,5.44,14,3.91,24.21-7.25,34-5.52,4.85-7.31,9.37-5.19,16.2a19.44,19.44,0,0,1,.64,9.35c-1.06,5.09.8,8.14,4.38,11.54,7.86,7.48,10,17.71,11.89,27.93.5,2.77.92,5.56,1.43,8.66l29,5.1c-1.28-6.78,3.09-12.21,6.94-17.81,5-7.2,5.19-14.73,2.19-22.75-2.68-7.17-4.91-14.51-7.46-21.73-5.54-15.66-3.43-31.18.91-46.61.41-1.47,2.5-2.48,3.81-3.71.35,1.76,1.21,3.59,1,5.25-1,6.23-2.71,12.37-3.32,18.62-.8,8.1-.87,16.21,2.29,24.11,2.9,7.26,4.8,14.91,7.69,22.17,4.13,10.35,3.12,20-3.56,28.7a23.74,23.74,0,0,0-5,16.69c.35,5.77.07,11.58.07,18.26,5.93-1.77,11.27-3.4,16.62-5,7-2.05,10.57.66,9.46,7.78s-.84,14.75-6,20.66c2.66,4.36,6.32,5,8.76.75,3-5.2,4.66-11.16,6.48-16.93.67-2.12-.18-4.69.24-6.94.25-1.33,1.64-2.44,2.52-3.65.89,1.21,2.65,2.51,2.54,3.61-.7,6.55-1.81,13.06-2.84,19.58a12.46,12.46,0,0,1-.86,2.33c6.17,1.16,12.36-4,13.5-9.9a181.59,181.59,0,0,1,5.77-21.05c.46-1.4,2.78-2.19,4.24-3.25.07,1.87.6,3.88.12,5.6-1.74,6.35-3.82,12.6-5.89,19.26,9.65-1.1,20.42-9.3,20-20.69-.32-8.75-2.14-16-9.89-21.58-9.54-6.89-9.54-17.56-8.93-28.15,1-17.55,2.5-35.11,2.48-52.67,0-8.84-3-17.65-4.4-26.51-2.73-17.22-12-31.6-19.82-46.63-11.71-22.45-29.36-39.8-47.89-56.45-1.93-1.74-6-3-3.54-6.73.26-.4,5,1.17,6.72,2.84,12.55,12.63,26.61,24.25,36.8,38.6,15.95,22.45,29.54,46.34,34.46,74.59,2.73,15.68,2.83,31.05,2.48,46.62-.26,11.43-1.32,22.85-2,34.27-.45,7.45,2.23,13.91,8.58,17.46,10.7,6,12.64,26.44,7.71,35.82-2.38,4.54-7.34,8.06-11.78,11.1-6.24,4.28-13.08,7.7-19.68,11.46a10.67,10.67,0,0,1-2.67,1.31c-6.67,1.62-13.38,3.09-20,4.76a8.6,8.6,0,0,0-4.28,2.16c-6.67,7.6-15.54,11.79-24.27,16.31-6.92,3.59-13.56,7.72-20.31,11.63-2.28,1.32-2.17,2.8-1.32,5.34,4.43,13.21,9.36,26.37,12.24,40,1.68,7.9-.18,16.55-.4,24.86-.37,14.9-6.55,27.4-14.8,39.54-4.27,6.27-6,14.26-8.81,21.52-1.54,4-2.81,8.15-4.28,12.19-4.32,11.87-7.69,24.22-13.31,35.43s-5.1,19.06,5.25,26.71c4.24,3.13,6.75,8.57,10.16,12.87a12.69,12.69,0,0,0,3.31,2.77c5.64,3.47,11.82,6.3,13.84,13.54.26.91,1.79,1.41,2.56,2.25,1.45,1.57,3.93,3.25,3.92,4.88,0,4.34,3.18,7.13,4.14,10.71a97.64,97.64,0,0,0,6.9,18.25c3.76,7.62-7.72,18.37-14.55,17.27-8.12-1.3-16.63-2.35-22.72-9.06-.89-1-2.21-1.77-2.67-2.91-2.83-7.12-9.38-7.22-15.42-9-9.31-2.76-19.1-5.27-27.22-10.26-7.45-4.58-14.51-8.07-23.13-7.3-17.09,1.52-26.29-12.3-29.82-25.79-2.21-8.5-.66-16.49,2.25-24.43,1.26-3.44,2.18-7.07,3.9-10.26,6.71-12.51,6.38-25.84,5.66-39.44a199.34,199.34,0,0,1,.6-27.86c.38-4.27,2.37-8.68,4.57-12.48,8.66-15,8.92-31.06,7.18-47.52a9.93,9.93,0,0,0-1-2.8c-1-2.26-2-4.5-2.9-6.39-7.9,1-15.29,2.63-22.67,2.62s-14.67-1.66-22.93-2.71c-.51,1.59-1.46,4.17-2.2,6.81Q808,606,798.69,639.42a12.41,12.41,0,0,1-2,4.54c-13.82,16.59-18.92,36.8-23.74,57.1-2.11,8.88-4.2,17.81-5.45,26.84-.61,4.44.5,9.18,1.2,13.73.82,5.26,3.54,8.92,8.8,11.13,3,1.27,5.57,4.08,7.8,6.66a148.25,148.25,0,0,1,11.05,14.19c2.31,3.44,4.77,4.83,9,4.37,3.34-.35,7.28-.2,10.15,1.28,8.22,4.24,11.31,18.43,3.69,22.8-8,4.6-13.9,15-25.5,12.47a1.78,1.78,0,0,0-1,0c-5.6,2.35-11.53,4.15-16.69,7.25-9.23,5.57-26.53,7.5-30.89-8.32-3.71-13.49-13.75-19.9-24.23-26.28-5.22-3.18-11.08-5.37-16.76-7.73-10.62-4.43-15.46-15.81-10.79-26.35,7.76-17.5,9.57-35.33,6.66-54.43-2.3-15.16-1.93-30.81-1.77-46.23.11-11.4,5.89-21.47,11.08-31.22a24.09,24.09,0,0,0,2.12-18.76c-5.33-17.87-5.88-36-5.41-54.42.24-9.24,1.06-18.25,4.33-27,.69-1.84,1.07-4.54.21-6.09-8.37-15.13-9.72-31.23-7.28-48,.89-6.09,1.37-12.24,2.28-18.33,2.06-13.73,9.9-24.91,16.48-36.65,4.95-8.82,9.29-18,14.87-26.44,3.58-5.4,2.26-9.52-.13-14.42-6.63-13.6-10.87-27.89-11.74-43.08a10.86,10.86,0,0,0-.61-2.92c-8.72-24.44-6.85-49.14-1.36-73.79a52.89,52.89,0,0,1,6.44-15.59,93.2,93.2,0,0,1,38.2-35.63c11.28-5.69,22.49-11.51,34.18-17.49-.95-1.76-2-3.41-2.75-5.18-1.67-3.8-4.39-7.61-4.53-11.49-.25-6.46-2.1-10.56-8.29-13.32-3.3-1.47-5.38-2.85-9.3-1.07-8,3.67-13.06.55-14.42-8.46-.52-3.48.22-7.15.42-11.42-9.88-3-12.7-10.83-11.34-21.14.17-1.24-1.25-3.24-2.48-4A16.61,16.61,0,0,1,742.6,86a40.62,40.62,0,0,1,13.52-17.6c.94-.7,1.59-3.36,1-4.31-7.51-12.66-5.24-25.35-1.53-38.58,1.43-5.09-.35-11.1-.78-16.69-.61-7.9-1-15.56,3.23-23,3.33-5.9,5.52-12.46,8.17-18.74,2.38-5.63,6.47-8.19,12.62-7.22,4.48.71,6.78-.75,8.07-5.61,2-7.62,6.71-8.89,13.12-4.21,4.26,3.12,8.21,6.66,12.57,10.24a57.56,57.56,0,0,0,3.65-5.45C822.32-56.77,833-61.62,844.9-64.82c3.37-.91,6.8-1.61,10.2-2.41,10.06-2.37,18.76.34,26.28,7.16,2,1.78,3.67,3.84,5.79,6.09,2-1.36,3.78-2.48,5.44-3.75a41.43,41.43,0,0,1,26.07-8.53c11.86,0,23.64-.38,34.57,5.63,10.71,5.88,17.46,14.1,17.55,26.8,0,2.31,0,4.63,0,7.64,5.29,0,10.24.25,15.16-.06a29.89,29.89,0,0,1,22.6,7.8c7.2,6.77,12.15,15.73,9.22,26.42-1.25,4.56.67,5.54,4.29,6.87,21.32,7.81,29.3,28.49,21.85,48.6-1.17,3.16-3.83,5.77-5.79,8.63,7.84,8.24,12,18,8.93,28.78-3.51,12.5-14,17.8-26,20.93,0,2.35,0,4.94,0,7.54.27,10.54-6.27,17.14-16.43,19.51-6.14,1.44-7.74,4-6.5,10.32,2.22,11.13-6.52,20.29-17.74,18.4-1.27-.21-2.31-1.8-3.45-2.75,1.26-.84,2.41-2.11,3.79-2.43,2.23-.53,4.76,0,6.89-.7,4.09-1.38,6.72-6.82,5.19-11.75s.55-8.91,2.59-12.77c.79-1.51,3.4-2.54,5.35-2.89q19.83-3.62,13.65-22.47c-.58-1.76-.26-3.82-.35-5.73,1.82-.08,3.65-.17,5.47-.22a6.8,6.8,0,0,1,1,.16c8.35,1,22.33-11.62,22.3-20.1,0-7.44-3.37-15.36-7.54-18.37-4.38,2.52-8.52,5.19-12.95,7.26-1.27.59-3.36-.57-5.07-.92,1.06-1.26,1.86-3.05,3.22-3.69,15.73-7.42,25.43-25.81,19-42.19-4.2-10.72-12.57-17.36-23.9-19.84-1.07-.24-2.69,1-3.72,1.86-3.25,2.87-6.2,6.08-9.58,8.77-1.08.87-3.12.54-4.72.76.39-1.46.35-3.31,1.25-4.31,2.56-2.83,5.55-5.27,8.3-7.94,6.55-6.37,7.56-15.47,3.65-23.68-5.12-10.76-14-14.42-25-14.7-1.33,0-2.68.13-4,0-7.37-.95-13.27.17-15.63,8.73-.66,2.38-3.55,4.34-5.79,6-1.18.87-3.17.65-4.79.92.45-1.56.4-3.73,1.43-4.57,10.89-8.86,10-20.55,6.82-32-1.31-4.64-5.56-9.35-9.75-12.08a40.58,40.58,0,0,0-23.59-7c-4.33.14-8.66.08-13,0-10.3-.15-18.56,4.61-26.11,10.93-.79.67-1,2.57-.76,3.8.35,2.28,1.47,4.46,1.69,6.74.11,1.13-1.06,2.4-1.65,3.6-1.08-.81-2.65-1.39-3.14-2.47-1.37-3-2.09-6.31-3.43-9.34a24.49,24.49,0,0,0-28.69-14.12c-5.49,1.36-11,2.65-16.37,4.39C828.06-54,821.88-45.4,816.57-36a4.38,4.38,0,0,0,.08,3.49c3.58,7.51,7.15,15,11.13,22.34,1,1.9,3.32,3.94,5.33,4.32,8.16,1.57,14.31,5.18,18.26,12.9,3.39,6.64,8.36,11.5,17,10.46,2.41-.29,5.21,1.1,7.57,2.25,6.42,3.12,8.28,7.53,6,14.14-3.64,10.5-8.6,20.12-17.27,27.62-3.84,3.33-6.7,7.8-9.79,11.49,2.55,12.62-7.54,16.44-13.65,21.35,0,5.37.63,10-.14,14.38-1.48,8.45-8.1,12.81-15.3,15.78-4.52,1.86-8.06,4.19-10.85,8.25a11.17,11.17,0,0,1-6.3,4.14,69.47,69.47,0,0,1-15.33,1.71c-2.89,0-5.76-1.89-8.67-2.93-2.28,4-1.69,7.9,1.67,10.68,5.28,4.4,10.94,6.84,17.95,4.29,1-.37,2.53.61,3.82,1-.76,1.3-1.22,3.13-2.35,3.76-1.82,1-4.09,1.28-7.08,2.12.64,3.55.54,7.58,2.11,10.79a165.13,165.13,0,0,0,11.31,19.31c10.16,15.11,25.14,25,39.52,35.47,3.35,2.43,8,2.95,12,4.56A74.6,74.6,0,0,0,916,229.46c23-7.6,43.29-19.44,51.68-44.49.52-1.55.32-3.37,1-4.85.5-1.17,1.77-2,2.7-3,.81,1.11,2.12,2.15,2.28,3.36a10.1,10.1,0,0,1-.65,5.34c-5.22,11.35-10,23.28-20.74,30.64-13.89,9.5-28.3,18-45.55,20.41-14.27,2-28,1.26-41.83-3.27A103.49,103.49,0,0,1,839.78,221c-12.8-8.46-22.83-19.26-32.4-30.8-1.85-2.23-3.45-2.53-5.94-1.28-17.11,8.59-35.33,15.65-49.83,28.3C738,229,727.55,243.72,726,262.67c-1.09,13.25-1.66,26.55-1.87,39.84-.06,4.18,1.93,8.37,2.8,12.59,2.2,10.73,3.66,21.67,6.65,32.18,2.72,9.56,7.57,18.49,10.55,28,3.38,10.75,6.57,21.7,8.18,32.8.9,6.14-1.5,12.79-2.66,19.17-.19,1-1.67,1.87-2.58,2.78-4.61,4.56-9.33,9-13.76,13.73a9.49,9.49,0,0,0-2.38,5.32c-.15,1.71.44,4.12,1.63,5.12.89.76,3.39.14,4.93-.48,2.6-1,4.91-2.85,7.53-3.77,1.21-.43,2.89.5,4.36.82-.75,1.26-1.22,2.89-2.3,3.71a75.54,75.54,0,0,1-7.18,4.38c-2.6,1.37-5.82,2.16-7.71,4.19-7.72,8.29-15,17-22.52,25.45-2.68,3-1.87,5.76.11,9.44,10.27-12.9,20-25.12,29.71-37.39.33-.42.19-1.21.27-1.83l1.88,1.84c-9.62,12.11-19.21,24.26-28.95,36.27-2.4,3-2.42,5.42.36,8.57,1.25-1.58,2.29-2.81,3.25-4.1,7.72-10.43,15.28-21,23.21-31.25C741.91,466.92,742.68,464,741.52,460.41ZM978.2,497.19c-.38-2-1.23-4.12-1.06-6.11.74-8.61,1.79-17.19,2.66-25.79.17-1.73,0-3.49,0-5.24l-2.27-.12c-1.81,13.1-3.61,26.2-5.58,40.47l6.09-3.36c3.27-.56,4.65-2.37,4.78-5.81.37-9.94,1.08-19.88,1.6-29.82a19.46,19.46,0,0,0-.39-3.37l-1.86-.06Zm-163.27,66c-13.4-8.9-26.72-17.7-40-26.58s-28.13-13.52-43.33-17.32c-3.78-.95-7.91-.68-11.87-.6-1.22,0-3.13,1-3.49,2-1.68,4.69-3.86,9.46-4.18,14.32-1.45,21.76-2.39,43.5,4.21,64.87a31.84,31.84,0,0,1-3.23,26.44c-3.89,6.67-8.13,14.17-8.69,21.56-1.2,15.67-.4,31.52.18,47.27.31,8.43,3.39,17,2.51,25.19-1.25,11.74-3.27,23.59-8.65,34.57-4.07,8.32-.3,16.27,8.25,19.88,5.67,2.39,11.52,4.57,16.74,7.75,11.49,7,22.74,14,26.56,28.77,2.63,10.21,14.11,12.3,23.86,4.72-3.59-2.42-7-4.5-10.17-7-1-.77-1-2.69-1.46-4.08,1.36-.07,3.08-.69,4-.09,3.87,2.5,7.35,5.63,11.29,8a9.77,9.77,0,0,0,6.22.84c1.23-.22,3.26-2.51,3-3.2a11.84,11.84,0,0,0-3.63-4.75c-1.22-1-3.12-1.23-4.44-2.19-.76-.56-1.6-2.38-1.3-2.76.67-.86,2.31-1.88,3.08-1.58,4.21,1.59,9.07,2,11.17,7.38.61,1.55,3.92,2.72,6,2.79,1.77.06,5-1.6,5.12-2.72a8.59,8.59,0,0,0-2.47-6.31c-2.53-2.29-6-3.55-8.82-5.55-1-.7-1.39-2.3-2.06-3.48,1.45-.34,3.33-1.43,4.28-.89,4.45,2.53,9.18,5,12.78,8.48,3.34,3.27,6.88,2.66,8.56.27a14.78,14.78,0,0,0,2.27-10.62c-.55-2.34-4.55-4.22-7.37-5.56-1.6-.76-3.93-.17-5.91,0-4.52.48-8-.78-10.68-4.77-2.47-3.75-5.45-7.16-8.13-10.76-3.9-5.24-7.91-10.23-14.43-12.59a7.29,7.29,0,0,1-4-4.11c-1.86-6.13-3.87-12.34-4.57-18.66-1.27-11.53,3.33-22.26,5.94-33.22,4.87-20.46,10.17-40.76,24-57.51,1.11-1.34,1.52-3.32,2-5.06C801.06,612.06,808,587.78,814.93,563.21Zm54.22.11c6.77,8.54,5.78,17.72,5.86,26.64a72.18,72.18,0,0,1-8.52,35.48c-3,5.61-3.85,12.53-5,19-.65,3.7-.23,7.68.24,11.46a102.39,102.39,0,0,1-9.56,58.64,29.79,29.79,0,0,0-2.27,20.92c3.1,11.73,10.19,23.54,25.51,22.26,9.2-.76,17.06,2.6,25,7.84,7.35,4.84,16.8,6.43,25.26,9.62,5.64,2.13,13.54,3,16.24,7.15,5.58,8.6,13,11.84,22,13.5,4,.75,7-.93,9.62-3.9,2.48-2.79,2.94-6,1-8.62a16.9,16.9,0,0,0-7.33-5.48c-8.23-3-14-8.39-17-16.46-1.89-5.19-2.57-10.82-4.2-16.12-4-13.08-13.2-22.57-22.8-31.65-2.91-2.74-4-5.68-2.72-9.37,1.35-3.89,3-7.7,4.41-11.56q8.13-21.42,16.21-42.87a28.45,28.45,0,0,0,1.33-4.8c2.2-11.66,7.22-21.9,14.11-31.61a48.66,48.66,0,0,0,8.23-18.53c4-21.59,3.37-43.08-5.14-63.78-1.68-4.07-3.6-8-5.77-12.86C926.52,535.37,899.74,551.8,869.15,563.32ZM837.35,91.43c3.63-3.24,7.47-6.39,10.92-9.93,1-1,1.63-3.49,1.08-4.68a5.16,5.16,0,0,0-4.21-2.4c-4.22.48-5.31-2-5.84-5.2a41,41,0,0,1-.21-6c-.34-15.18-5.73-21.86-20.23-25a36.57,36.57,0,0,1-22.38-14.73c-1.72-2.39-3.2-2.64-5.83-1.89a58,58,0,0,1-11.17,2.07c-4.63.39-9.35-.07-14,.44A6.44,6.44,0,0,0,761,27.38c-4.37,11.57-5.76,23.07.95,34.53,3.62,6.18,2.53,6.39-2.5,11.06a64.42,64.42,0,0,0-11.91,15.55c-2.15,3.83-1,8.61,2.41,12,2.38,2.35,4.81,3.28,7.22-.57a34.06,34.06,0,0,1,6.91-7.76c1.47-1.22,3.9-1.29,5.89-1.89-.81,1.88-1.33,3.95-2.48,5.58-3.05,4.32-7,8.1-9.4,12.74s-2.44,10.08,1.15,14.6c2.82,3.54,6.82,3.52,10.93,3.06a21.8,21.8,0,0,1,4.44.42c-.74,1.46-1.16,3.29-2.29,4.31-3.65,3.27-5.49,7.07-4.38,11.95.54,2.43,1.11,5.22,4.63,4.63,3.06-.52,5.84-1.4,5.67-5.56-.11-2.6-.38-5.71.83-7.74,1.73-2.88,1.08-5.08.45-7.89a59.61,59.61,0,0,1-1.23-12.22c0-1.13,1.76-2.27,2.72-3.4a18.13,18.13,0,0,1,2.09,3.89c.32,1.23-.25,2.66-.12,4,.54,5.25,1.49,11.19,6.82,12.93,4.88,1.59,10.59.86,15.92.68a6.94,6.94,0,0,0,5-2.51c3.31-5.24,8-8.06,13.67-10.21,9-3.4,13.4-10.66,11.85-17.89-1.14-5.3-4.87-8-9.46-10.14-1.2-.56-1.84-2.32-2.74-3.53,1.55-.39,3.34-1.46,4.61-1C831.41,87.87,833.93,89.59,837.35,91.43ZM873.26,554.9l1.89,1.36c1.92-2.25,4.41-4.23,5.68-6.8,11.5-23.3,22.8-46.7,34.13-70.08.59-1.21.95-2.54,1.55-4.19-4.69.41-8.74.35-12.56,1.26-2.23.53-5,2.15-6,4.07-13.64,25.57-27,51.28-40.45,77a35,35,0,0,0-1.46,3.77l1.57,1.17c1.9-1.94,4.42-3.55,5.61-5.86,12.82-24.68,25.43-49.48,38.1-74.24.82-1.59,1.76-3.11,2.65-4.66l1.19.75L864,558.94c4.62.45,6.32-2,7.8-5q18-36.24,36.12-72.44c.74-1.48,1.59-2.9,2.38-4.34l1.22.69Zm-16-76.22c-4.93-1.89-7.15-.3-9.09,3.46-11.49,22.36-23.21,44.61-34.85,66.89-2.94,5.61-2.76,6.07,3.87,8.56Zm7.52.77c-3.9-1.84-5.9-.5-7.64,3-9.6,19.2-19.39,38.3-29.1,57.44-3.07,6-6.09,12.12-9.12,18.17,6.25,3.19,6.59,3.15,9.17-2.16q17.69-36.36,35.28-72.76C863.9,482,864.27,480.7,864.75,479.45Zm18.06-.72c-5.53-1.17-8,.71-10.09,5-12,24.89-24.4,49.64-36.63,74.44-.71,1.45-1.29,3-2,4.63,5.26,1.85,6-2.41,7.31-5,11.32-21.35,22.49-42.77,33.69-64.18C877.59,488.82,880.09,484,882.81,478.73Zm-49.9-3.88c-3.87-3.28-5.8-2.21-7.66,1.5-10.21,20.39-20.61,40.67-30.94,61-2.54,5-2.29,5.51,4,7.28Zm23-412.75,2.06-1a26.71,26.71,0,0,0-1.57-4.17Q828,7,799.44-42.72c-1.11-1.93-3.46-3.15-5.23-4.7l-1.46,1.26c.71,1.55,1.3,3.18,2.15,4.65,4,6.92,8,13.8,12,20.7q21.34,36.64,42.71,73.27C851.58,55.76,853.81,58.89,855.9,62.1ZM827.54,560.87c4.12,2.82,5.19.36,6.44-2.18q14.74-30,29.58-60l9.49-19.21c-4.34-1.63-6.25,0-7.87,3.44-8,16.82-16.2,33.54-24.32,50.3C836.45,542.37,832.07,551.47,827.54,560.87Zm7.3-86.07-14.44,29c-6.45,13-12.92,25.92-19.29,38.93a7.74,7.74,0,0,0-.61,4.12c.06.51,2.08,1.42,2.38,1.17a12.84,12.84,0,0,0,3-3.68Q822.54,513,839,481.62c.67-1.28,1.15-2.65,1.87-4.32Zm62.34,2.81-1.41-1.41c-1.9,1.5-4.58,2.6-5.6,4.56-13.51,25.95-26.79,52-40.11,78.06a40.7,40.7,0,0,0-1.47,3.84c4.34.81,5.46-2.14,6.82-4.73q19.89-38,39.78-76C895.93,480.54,896.52,479.06,897.18,477.61Zm-71.56-5.49c-3.88-3.07-5.93-2.65-7.84,1.34-10.08,21-20.4,41.86-30.62,62.78a11.11,11.11,0,0,0-.52,2.09l4.16,2.24Zm22.79,6.09c-3.73-1.8-5.54-.38-6.94,2.28q-17.41,33.11-34.91,66.18c-1.78,3.36-.75,4.82,3.09,5.75Zm40.68.64-1.56-1.58c-1.46,1.52-3.38,2.79-4.33,4.58q-20,37.74-39.67,75.61c-.83,1.59-1.47,3.27-2.22,5,4.07,2,5.35-.53,6.7-3.16q12.93-25.35,25.92-50.68Q881.52,493.73,889.09,478.85ZM772.61,528.72a20.44,20.44,0,0,0,1.49-2q15.6-30.2,31.16-60.41a5,5,0,0,0,.83-2.31,2.65,2.65,0,0,0-1.21-1.92c-.52-.26-1.87,0-2.06.4-3.07,6.33-8.52,11.41-9,19.18-.19,3-2.72,6-4.69,8.66-1.57,2.11-4.25,3.39-5.83,5.5-2.39,3.19-4.25,6.76-6.32,10.19-3.75,6.21-7.48,12.43-11.35,18.86Zm157.51-54.88-1.66-1.37c-1.65,1.72-3.91,3.16-4.86,5.21-10.12,21.91-20,43.92-30,65.91a25,25,0,0,0-.9,3c4.45-.68,6.75-3,8.35-6.64,9.11-20.73,18.38-41.38,27.57-62.07C929.21,476.57,929.63,475.19,930.12,473.84Zm-7.61,1.84-1.35-1.43c-1.12.92-2.71,1.61-3.29,2.79Q901,511.57,884.36,546.21c-.75,1.55-1.41,3.15-2.43,5.42,4.87-1.1,7.67-2.89,9.41-6.87,6.68-15.23,13.65-30.34,20.51-45.5Q917.19,487.47,922.51,475.68ZM785.23,536.45,817.73,470c-3.6-3-4.83-.75-6.15,1.88q-14.64,29-29.43,57.88C780.38,533.17,780.57,535.31,785.23,536.45ZM742.59,386.68c-4.1,7.66-8,14.93-11.85,22.22a2.29,2.29,0,0,0-.21,1.85c3.64,5.82,7,11.89,13.16,16.37C749.38,413.11,746.4,400.08,742.59,386.68Zm66.68,77.45a19.56,19.56,0,0,0-2.13,2.27q-15.66,30.35-31.32,60.69c-1.79,3.44,0,4.34,2.57,5,.45-.26.66-.31.72-.43,10.61-20.7,21.25-41.38,31.67-62.16C811.3,468.42,810,466.46,809.27,464.13Zm93.06,78c4.71-1.58,7.93-3.19,9.67-7.68,7.49-19.38,15.31-38.62,23-57.92.56-1.4.92-2.88,1.36-4.33l-1.62-.92c-1.14,1.53-2.61,2.91-3.38,4.61q-14,31.14-27.8,62.38C903.11,539.29,902.89,540.38,902.33,542.17ZM792.51-42.27l-1.86.59c.65,2,.94,4.28,2,6.07q26,44.4,52.19,88.68c.69,1.15,2,1.91,3.06,2.86l1.21-1ZM913.33,536.2l1.52,1.1c2.13-2.61,5.09-4.89,6.23-7.88,7-18.17,13.52-36.5,20.18-54.78a31.42,31.42,0,0,0,.86-3.63l-1.42-.84c-1.11,1.66-2.55,3.18-3.28,5q-11.5,28.45-22.79,57C914.1,533.46,913.76,534.85,913.33,536.2Zm-81-500.41c-1.07-2-1.87-3.55-2.76-5.07L810.36-2C804-12.77,797.74-23.56,791.31-34.26c-.59-1-2.13-1.36-3.23-2,.09,1.17-.13,2.49.34,3.48,1.15,2.39,2.61,4.64,4,6.94l32.42,55.69C826.35,32.52,826.8,36.42,832.36,35.79Zm-49.2-70.94-.82.82a10.46,10.46,0,0,0,.69,2.18c11.84,21,23.66,42,35.67,62.91.93,1.62,3.28,2.42,5,3.6.58-1.58.5-2.24.19-2.77Q805.19-.54,786.44-32.62C785.79-33.72,784.27-34.32,783.16-35.15ZM948,469.64l-2-.87c-3.84,6-5.27,13.17-7.91,19.72-2.72,6.78-5.07,13.72-7.56,20.59s-4.94,13.76-7.41,20.64l2,1.12c2.13-3.06,5.08-5.84,6.26-9.23,5.36-15.55,10.24-31.26,15.27-46.93C947.14,473,947.51,471.32,948,469.64ZM811.24,28.71l-37-62.86c-3.55,2.27-2.45,4.44-1.08,6.66q6.17,10,12.3,20c5.58,9.08,11.33,18,16.66,27.27C804.15,23.31,805.33,27.32,811.24,28.71Zm15-31.6-1.29,1.31,34.26,60,2-.53c-.19-1.47,0-3.18-.64-4.38q-14.4-25.7-29.1-51.21C830.3.21,828-1.19,826.23-2.89Zm127.86,470.6c-4.3,1.57-20.58,48-20.41,55.65,3.83-.81,5.82-3.13,6.84-7,3.27-12.2,6.85-24.31,10.28-36.47C951.87,476.15,952.85,472.34,954.09,467.71ZM750.52,519c3.54,1.44,6,4.41,8.61-.14,5.5-9.66,11.21-19.19,16.77-28.82a19.48,19.48,0,0,0,1.12-3.84C762.43,493.38,759.21,508,750.52,519Zm-35.63-6.43,1.88.3c8.2-11.48,16.51-22.88,24.47-34.52,1.16-1.71.63-4.56.88-6.89l-1.53-.3c-8.56,11.63-17.24,23.18-25.56,35C714,507.63,714.89,510.43,714.89,512.61Zm233.8,2.76c4.79-2.15,7-4.39,7.92-8.46,2.62-12.18,5.63-24.28,8.46-36.41.4-1.71.64-3.45.95-5.18l-1.58-.87c-1.08,1.61-2.65,3.07-3.16,4.84C958,480.62,955,492,951.85,503.4,950.86,507,949.92,510.68,948.69,515.37ZM834.19-.55,832.73.88l30.6,53.91,1.78-.79a25.62,25.62,0,0,0-1.31-4.2C855.94,34.57,848.11,19.32,840,4.24,838.88,2.19,836.16,1,834.19-.55ZM941.73,518l1.86,1.24c1.23-1.81,3-3.45,3.61-5.46,4-13.88,7.73-27.84,11.53-41.78.46-1.69.8-3.42,1.2-5.13L958.4,466c-1,1.4-2.61,2.65-3.08,4.22-3.19,10.66-6.15,21.39-9.17,32.1Q943.93,510.16,941.73,518ZM759.86,482.27l-2.36-.49-21.73,32.1c4.46,3.16,6.81,2.26,9-1.7,4.29-7.69,9.22-15,13.54-22.68C759.49,487.45,759.39,484.7,759.86,482.27Zm-.53,39.56.8,1.87c1.68-.48,4.19-.42,4.89-1.52,6.44-10.08,12.56-20.36,19-31l-5.37-2.47Zm198.58-13.75c7.69-4,7.7-4,8.62-10.46q2.09-14.82,4.12-29.66c.21-1.51.17-3.07.25-4.6l-2.11-.39C964.7,477.63,961.74,492.57,957.91,508.08ZM815.17,32.18l1.26-.83a2.61,2.61,0,0,0-.11-.94Q798.44-1.33,780.48-33c-.59-1-2.18-1.48-3.3-2.21l-1,1.09ZM744.94,480l-2.1-.69-23.48,32.84,1.16,1.58c2.14-1,5.07-1.41,6.29-3.07,5.89-8.05,11.43-16.36,16.83-24.75C744.67,484.35,744.54,482,744.94,480Zm-.79,36.23.93,2c1.78-.6,4.41-.64,5.21-1.88,5.28-8.09,10.17-16.43,15.15-24.7a5,5,0,0,0,.29-1.6l-4.07-2.54Zm2.19-31.17-18.47,27.26.69,1.45c2-.32,5.09.09,5.91-1.07,5.72-8.1,11-16.52,16.56-25.1ZM770.82-28.09l-2,.65c.34,1.72.2,3.74,1.07,5.11,7.6,11.95,15.36,23.8,23.17,35.61.65,1,2,1.55,3,2.31l1-1ZM866.5,51.35c2.68-3.21,2.82-3.29-8.22-23.41-4.2-7.67-9.21-14.89-13.85-22.31l-1.27.76ZM737.31,427.6c-3.12-2.07-5.19-4.6-6.95-4.4C722.9,424,715.45,432,713.48,441Zm-26.3,24c10-6.66,20.39-11.18,27.49-22.05-2.26,1-3.44,1.33-4.5,1.92-6.09,3.37-12.06,6.95-18.24,10.14C711.94,443.54,710.8,446.49,711,451.57Zm20.61,9.32c-.28-.58-.55-1.16-.83-1.73-1.55.47-3.63.47-4.58,1.5-5.75,6.23-11.38,12.6-16.74,19.16-1.32,1.62-1.53,4.16-2.24,6.27l1.61.78Zm-23.09,16.3c.45-.22,1-.31,1.26-.62,4.84-5.44,9.81-10.77,14.35-16.44,1.2-1.49,1-4.06,1.51-6.13C710.39,463.73,707,468.7,708.53,477.19Zm281.72-20.88-2-.67c-.71,1.7-1.93,3.35-2.06,5.09-.72,9.6-1.18,19.23-1.7,28.86-.06,1.2.12,2.41.18,3.62l2.1.15C988.38,481.07,989.27,468.68,990.25,456.31Zm8.31,27.47c3.83-2.09,5.29-3.73,3.53-6.93-.54-1-.76-2.88-.18-3.61,5.18-6.54,4.31-14.49,5.29-22.46-1.92.62-4.2,1.62-4.43,3C1001.18,463.35,1000,473,998.56,483.78ZM709.77,464.19c5.3-6.19,14-9.49,15.54-18.86-3.64,1.55-6.72,3.86-10.13,5.46C709.22,453.59,709,458.51,709.77,464.19ZM766.38-17.33l-1.14.56a6,6,0,0,0,.21,2.27c5.73,10.34,11.47,20.68,17.4,30.9.51.87,2.41.94,3.66,1.38l.6-1.44Zm230.15,471.9-1.61-.88c-1,1.4-2.73,2.72-2.91,4.21-1.14,9.91-2,19.85-2.83,29.79a12.6,12.6,0,0,0,.46,3.05l1.36.05Q993.78,472.69,996.53,454.57ZM768.3-21.47l-1.19.18a7.9,7.9,0,0,0,.54,2.64C774.37-7.55,781.12,3.52,788,14.52c.55.87,2,1.16,3.08,1.71l1-1.16Zm88.55,43.08L870.14,46C873.43,41,863.9,22.93,856.85,21.61Zm143,431.52-1.34-.22c-1.79,11.75-3.59,23.5-5.52,36.21C997,486.07,1001.48,458.58,999.86,453.13Zm-24.24,8.73-2.39-.32-5.6,39.75,2.47.33ZM764.38-12.72c-2.21,3.82,12.27,29.53,17,30.23ZM804.8-39.3l-1,.73L822.9-5.33C818.08-17.35,814.14-29.87,804.8-39.3ZM956.72,762.51c3.15,5.6,7.09,9,13.06,10C969.24,765.36,964.79,761.84,956.72,762.51ZM761.4-8.5c-2.73,5.37.51,7.65,2.67,10.36a81.26,81.26,0,0,1,6.16,8.41c4.31,7.14,4.22,7.19,6.39,7.22C771.6,8.91,766.73.59,761.4-8.5ZM864.9,23.27c2.79,6,5.32,11.39,8.18,17.53C875.91,34.54,870.52,23.11,864.9,23.27ZM964.12,757l.57-1.32-11.65-5C952.86,757.09,952.86,757.09,964.12,757ZM726.45,414.56c-2.28,4.2-4,7.37-5.7,10.53l1,.7,8.84-5.12ZM802,460.21c-5.21,1.49-7.53,6-6.75,11.73Zm73.9-426c2.71-6.13,2.06-7.59-4-9.79C873.19,27.65,874.32,30.41,875.86,34.2Z" transform="translate(-333.62 68.07)"/>
        <path d="M945.83,174.14c-3.84-1.92-3.65,11.48-9.74.54-3.05,3.9-6.56,6.79-7.94,10.47-3.53,9.46-11.75,12-19.82,15-.84.31-2.19-.75-3.31-1.17.51-1.11.72-2.68,1.58-3.24a24.24,24.24,0,0,1,6.73-3.22,12.34,12.34,0,0,0,8.94-7.95c4.1-11.36,13.36-14.84,24.1-16.43,8.06-1.19,16.21-2.18,24-4.26,3.09-.83,6.26-3.89,8-6.77,6.55-10.84,7-23,6.43-35.28A6.26,6.26,0,0,0,984,120c-13.88,3.16-28.54,10.65-38.37-7.18-7.47,7.32-16.09,7.52-25.56,4.66-1.55-.46-4.21,1.86-6,3.32-7.83,6.32-16.33,7.34-23.15,1.29-3.33-3-4.93-7.88-7.64-12.46a43.28,43.28,0,0,1-5.56.66c-11.2.1-17.81-16.08-15.05-24.45.33-1,2.08-1.55,3.17-2.3.59,1.41,1.84,2.93,1.64,4.22-.79,5.19.95,9.41,3.89,13.49,2.78,3.88,6.14,4.67,10.43,2.94,5.3-2.14,7.49-1.21,8,4.68,1.09,12.41,13.81,15.46,21.45,7.44,1.14-1.21,2.7-2.07,3.64-3.4,2.41-3.36,4.62-3.45,7.79-.73,4.09,3.51,14.57,2.29,17.61-2.22s5.13-9.56,7.81-14.27a20,20,0,0,1,3.26-3.52A29.94,29.94,0,0,1,953,96.81c.16.87-.45,1.91-.77,2.85-2.73,8.24-1.67,12.29,5.06,17.84A7,7,0,0,0,961.8,119c12-.89,23.54-2.9,31.51-13.43.73-1,2.73-1,4.14-1.41,0,1.51.56,3.8-.2,4.4-6.69,5.33-7.52,12-7,20.21.55,9.75-.93,19.57-5.8,28.51-3.73,6.87-8.14,12.54-16.91,12.72-3,.07-6.11.47-5.94,4.88,0,.78-1.19,1.88-2.08,2.29-.37.18-1.39-1.06-2.12-1.65-1.15-.92-2.3-1.82-3.45-2.73-.6,1.15-1.19,2.32-1.81,3.46s-1.21,2.16-1.81,3.24a17.47,17.47,0,0,1-3.34-2.41A8.3,8.3,0,0,1,945.83,174.14Z" transform="translate(-333.62 68.07)"/>
        <path d="M883.66,81.33c-2.3-.15-4.61-.48-6.9-.4-4.28.17-7.39-.88-8.54-5.65C867,70,868,63.58,871.31,61.52a4.39,4.39,0,0,1,3.49-.17c.43.15.33,2,.31,3,0,.43-.68.85-.7,1.28-.11,3.1-.13,6.2-.18,9.3,3.84,0,7.68.18,11.5,0,1.6-.1,3.15-1.07,4.72-1.64.16,1.85,1,4,.38,5.51-2.08,5.47-.63,9.94,3.57,13.37,4.75,3.88,10.54,4.3,16,2.06,5-2,10.15-4.37,12.45-10.08.34-.85,2-2,2.63-1.73a4.89,4.89,0,0,1,2.3,2.7,16.74,16.74,0,0,1,1.28,5.27c.24,4.82-1.24,5.68-5.92,5.25A13.06,13.06,0,0,0,916,97.47c-8.78,5.06-17.53,4.71-25-1.61-3.85-3.27-5.65-8.94-8.38-13.53Z" transform="translate(-333.62 68.07)"/>
        <path d="M858.25,174.34a8.32,8.32,0,0,1-.54,2.16c-1.07,1.71-2.26,3.35-3.39,5-.66-2-1.45-4-1.93-6.09a33.52,33.52,0,0,1-.69-5.48c-.07-1-.24-2.52.33-3a3.3,3.3,0,0,1,3.11-.31c9.09,6,18.82,3.92,28.55,2.62,1.57-.21,3.29.74,4.94,1.15-.79,1.26-1.58,2.51-2.36,3.78-.25.41-.45.86-.71,1.26-.9,1.4-1.88,4-2.7,3.92-1.73-.1-3.37-1.58-5.05-2.5l1.44-1.64-6.93.82c-.46,1.34-.55,3.16-1.39,3.64a7.69,7.69,0,0,1-4.07.14C866.32,174.16,861.69,175.53,858.25,174.34Z" transform="translate(-333.62 68.07)"/>
        <path d="M898.41,226.87,892,223c2.15-.92,4.24-2.32,6.47-2.64,2.38-.33,6-.9,6,2.87C904.42,224.33,900.88,225.44,898.41,226.87Z" transform="translate(-333.62 68.07)"/>
        <path d="M706.86,758.3A89.45,89.45,0,0,1,711,749c.5-.86,2.48-.87,3.77-1.26.17,1.29,1,3,.41,3.81-3.29,4.86-2.71,9.17.81,13.63.7.89,0,2.86,0,4.33-1.41-.51-3.45-.6-4.11-1.6A97.55,97.55,0,0,1,706.86,758.3Z" transform="translate(-333.62 68.07)"/>
        <path d="M874.58,709.52c.6,2.39,1.61,4.1,1.13,4.9-2.7,4.46-3.92,8.72-.53,13.41.4.56-.19,2.72-.65,2.84-1.11.29-3.26.16-3.52-.43-1.25-2.91-2.57-6-2.8-9.09-.18-2.48.9-5.19,1.94-7.57C870.72,712.29,872.38,711.47,874.58,709.52Z" transform="translate(-333.62 68.07)"/>
    </g>
</svg>
