<?xml version="1.0" encoding="iso-8859-1"?>
<!-- Demetory // Image Boobs -->
<svg version="1.1" id="img_boobs" xmlns="http://www.w3.org/2000/svg" viewBox="0 0 837.01 670.48">
    <path d="M439.15,435.53a19.93,19.93,0,0,0,2.81-2.32c2.42-2.89,5.41-4,8.91-2.59s4.93,4.34,4.74,8c-.24,4.65-.85,9.29-.87,13.93-.07,17.13-.73,34.31.35,51.38.82,13.06,4.18,25.93,6,38.95,4.84,35.23,16.41,68.27,33.05,99.48,9.72,18.23,21.85,35,35.32,50.78,1.19,1.39,2.72,2.7,3.36,4.33,2.19,5.6,5.78,4.56,10.4,3.3a194,194,0,0,0,56.45-26c19.13-12.7,34.65-29,47.39-48,5.09-7.6,10.1-15.25,15.55-23.47-2.52-1.31-4.52-2.31-6.48-3.38-10.8-5.85-11.56-14-9.93-23.78,1-6.22,10.51-9.63,18.53-7.13,3,.93,5.77,2.47,9.3,4,.79-7.18,1.86-14.06,2.25-21,.69-12.14,1.24-24.29,1.33-36.44.11-13.66-5.64-25.87-10.67-38.16-11.66-28.5-31.29-50.83-54.76-70.13-3.48-2.85-7-5.61-10.43-8.56-4.52-3.93-5.37-8.71-2.36-12.2s7.65-3.49,12.1,0c13.18,10.46,25.84,21.4,37.29,33.89C663.86,437,675,455.7,683.51,476.13c.31.73.69,1.44,1.44,3,.79-2.16,1.43-3.55,1.81-5,6.56-25.26,18.84-47.95,31.91-70.24a56.21,56.21,0,0,1,9.25-11.1c8.66-8.53,17.53-16.85,26.45-25.11,3.71-3.43,8.25-3.48,11.26-.6s3.19,7.82-.46,11.61c-5.66,5.87-11.31,11.85-17.58,17-10.09,8.35-17.35,18.64-23.67,30a263.83,263.83,0,0,0-29.51,81.86A128.78,128.78,0,0,0,697,566c1.47,5.18,2.2,10.58,3.27,15.87l1.63.82c1.39-1.84,2.67-3.79,4.21-5.5,6.07-6.78,13.93-8,22.39-6.76A14.17,14.17,0,0,1,740.59,581c1.82,6.39,2.31,12.91-2.65,18.41a30.59,30.59,0,0,1-16.54,9.69c-1.93.41-3.84.88-6.47,1.49,6.22,8.18,12.19,15.93,18.06,23.75,16.44,21.88,38.78,35.62,63.54,46,6.3,2.63,12.93,4.54,19,7.53,12.56,6.14,26.38,4.81,39.55,7.22,1.09.2,3-1.23,3.75-2.39,21.78-32.53,38-67.7,47.33-105.68,3.64-14.78,4.89-30.22,6.45-45.44,3.08-29.91,1.08-59.84-.63-89.74a26.71,26.71,0,0,1,0-4c.49-4.85,3.76-8.25,7.83-8.24s7.6,3.36,7.74,8.24c.77,27.64,2.85,55.34,1.73,82.9-1.92,47.46-13.49,92.76-36.38,134.78-1.57,2.89-2.92,5.9-4.37,8.85l.93,1c3.93-2.76,8.39-5,11.71-8.37,9.92-10.09,20-20.16,28.82-31.15,5.34-6.63,8.74-14.87,12.7-22.54,2-4,3.21-8.41,5.16-12.44,2.08-4.31,6.08-5.89,9.91-4.43s5.5,5.43,4.32,10c-.34,1.28-.9,2.5-1.31,3.77-7,21.41-19.88,38.93-35.28,55-10.46,10.9-21.65,20.69-35,27.92-1.75,1-3.38,2.14-5,3.25-.24.16-.32.53-1,1.7a92.4,92.4,0,0,0,9.56-.83c25-4.89,46.7-16,66.86-31.79,21.34-16.68,34.7-38.81,47.43-61.63,3.84-6.89,5.69-14.9,8.3-22.45a4.37,4.37,0,0,0-.37-3.56c-11.09-13.9-22.71-27.4-33.4-41.59-21.84-29-36.59-61.83-49.53-95.45-4.16-10.82-6.41-22.39-9.32-33.67-.69-2.65-1.4-4.22-4.54-3.72a6.28,6.28,0,0,1-4.36-.66c-6.28-4.75-12.55-3.45-18.93-.45-.89.42-2,.65-2.61,1.34-5.27,6.31-10.43,12.71-15.63,19.08l1.19,1.26c2.52-1.42,5.11-2.75,7.56-4.28,4.24-2.64,8.3-5.59,12.62-8.09s8.82-1.5,11.1,2,1.44,8.1-2.74,10.9c-7.48,5-15.27,9.49-22.86,14.29-7.31,4.62-14.76,9-21.75,14.09-33,23.85-65.05,48.79-94.62,76.82-9.19,8.7-18,17.86-26.94,26.77a26.88,26.88,0,0,1-4.9,4.23c-5.28,3.13-11.2-.06-11.56-6.17-.26-4.32-.37-8.65-.36-13,0-13.4,8-22.6,21.25-24.61.47-.07.91-.35.15-1,2.41-7.28,4.09-14.91,7.39-21.75,5-10.36,14-14.91,25.48-13.61,3.63.41,5.39-.7,7-3.81,4.79-9.3,11-17.68,20-23.16,4-2.39,8.85-3.54,13.47-4.41,2.76-.51,4.38-1.08,5.5-3.86a114.93,114.93,0,0,1,5.87-11.55c5.3-9.79,13.29-15.33,24.68-14.56,5.42.36,8.29-2,11.12-6.35a146.41,146.41,0,0,1,14.86-19.36c3.24-3.52,8-5.66,12-8.42-4-19.38-2.91-38.8,7-57.28.61-1.14.63-3.44-.12-4.33-13.11-15.58-8-46.7,5.36-61.26a7.13,7.13,0,0,0,.65-1.25c-1.58-2.24-3.34-4.61-5-7.08-7.94-12.13-5.59-25.13,4.85-35,8.15-7.67,17.55-10.3,28.13-10.72,6.94-.27,12.39,6.63,11,14-3.26,17-7.37,33.88-9.59,51a442.92,442.92,0,0,0-3.5,51.73c-.2,17.79-.07,35.77,2.27,53.35,5.47,41.24,20.48,79.33,40.14,115.9,12.58,23.41,29.13,43.75,45.29,64.49a13.71,13.71,0,0,0,2,1.49c.54-3.74,1.2-6.9,1.42-10.1q.8-11.46,1.22-22.94a129.46,129.46,0,0,0-11.41-58.75,33.63,33.63,0,0,1-1.49-3.7c-8.61-26.7-25.34-48.5-42.28-70.17-4.31-5.51-8.46-11.17-13.14-16.36-5.24-5.83-7.2-13-9.37-20.15-1.07-3.49-.16-6.72,3.14-8.7,3.46-2.06,6.85-1.41,9.55,1.4,1.46,1.52,3.07,3.48,3.36,5.43,1.12,7.56,6.17,12.75,10.37,18.48,12.8,17.44,25.72,34.8,38.33,52.38a72.71,72.71,0,0,1,7.24,13.58c3.51,8.09,6.4,16.46,9.92,24.54,8.81,20.25,11.51,41.43,11.28,63.36-.28,26.51-5,52-15.35,76.33-4,9.29-9.49,17.9-14.32,26.81-16.14,29.78-41.3,50.78-70.12,66.52-24.36,13.3-51.42,18.84-79.75,13.8-11.78-2.1-23.77-3-35.65-4.53a25.22,25.22,0,0,1-5.8-1.42c-19.41-7.49-39.15-14.34-57-25.2-16-9.75-30.37-21.61-41.59-36.9-.88-1.21-1.86-2.35-2.84-3.48-.18-.21-.57-.26-1.11-.49-.62,1.08-1,2.62-1.94,3.2-2.14,1.31-5,3.48-6.78,2.87a13.1,13.1,0,0,1-6.86-6.17c-3-6.59-5.1-13.64-7.73-20.44-.62-1.61-1.94-3-3.51-5.28-2.26,5.77-4.18,10.67-6.09,15.57-.79,2-1.53,4-2.34,6-2.56,6.4-6.54,8.94-11.16,7.18s-5.78-6.36-3.42-12.86A14.85,14.85,0,0,0,668,624c-1.91,2.76-4,5.44-5.7,8.31C651,651,636.12,666.62,619.38,680.06a187.28,187.28,0,0,1-51.57,29.1c-.31.12-.65.17-.95.3-26.64,11.6-54.57,9.74-82.57,8.26-16.48-.87-31.46-6.21-46.45-12.46a133.38,133.38,0,0,1-46.67-32.52c-7.62-8.15-15.39-16.22-22.25-25-19.75-25.28-29.64-55.15-36-85.86-4.69-22.81-5.9-46.58,2.72-69a528.77,528.77,0,0,1,25.11-56.55c10.77-20.44,23.78-39.68,35.33-59.72,4.28-7.44,7.48-15.55,10.62-23.56,2.33-5.93,5.78-8.89,10.44-7.54,4.44,1.3,6.53,5.61,4.65,11.48-2.18,6.78-4.42,13.69-7.83,19.89-6.33,11.52-13.13,22.82-20.44,33.75-18.1,27-31.76,56.3-42.74,86.72-5.6,15.49-7.43,28.06-3.63,49,.74-.17,1.64-.12,2.16-.55,7.21-5.84,15.15-11,21.41-17.77,30.13-32.41,47.81-71.27,58-114,8.23-34.61,14.5-69.49,13.76-105.19-.54-25.94-2.2-51.87-3.42-77.8-.64-13.64-1.4-27.27-2.11-40.91-.07-1.31-.19-2.62-.35-4.71-7.73,1.33-15.15,2.8-22.63,3.84-12.69,1.76-25.47,2.94-38.12,4.92-20.19,3.16-39.75,8.45-56.85,20.28-10.29,7.12-16.45,17.7-22.62,28.21-13.64,23.21-17.87,48.71-16.3,75,.78,13.14,3.88,26.45,8,39,5.12,15.53,11.18,30.79,11.91,47.24.45,10.23-.74,20.57-1.8,30.8-.41,3.95-3.7,6.31-7.95,6.14-4-.15-7.14-3.7-7.13-8.26a97.45,97.45,0,0,1,.89-13.44c2.28-16.36-1.55-31.81-7.1-46.9-9.25-25.12-14.72-50.73-12.2-77.69,3.13-33.39,14.9-63,38.53-87.2,8.87-9.09,20.26-14.33,32-18.88,21.39-8.27,43.86-10.65,66.37-13.2,8.58-1,17.07-2.84,25.63-4.09,5.09-.74,10.24-1.22,15.38-1.49,4.89-.25,8.5,2.55,9.07,7.44.71,6.1.85,12.28,1.06,18.43.09,2.81,1,3.92,3.9,5.15C466.79,205,474.86,211.77,478,222.9c2.59,9.33-1.35,16.16-8.34,20.64,4.72,8,9.56,15.57,13.79,23.52,1.75,3.29,2.44,7.23,3.17,11,1.46,7.58-1.8,13.26-7.79,17.64-1.2.87-2.44,1.66-4.23,2.88,8.08,4.74,11.86,12.26,14.57,20.3,3.05,9-1.53,16.05-7.57,22.34,8.86,8.73,8.66,19.66,8.79,30.25,0,3.18-2.59,6.35-3.69,9.62-.45,1.31-.65,3.74.05,4.25,9,6.47,14.44,15,15.58,26,5.25,0,10.08.25,14.86-.06,7.78-.5,13.43,3.07,18.16,8.69,6.87,8.17,12.36,17,12.44,28.66,2,.14,3.84.6,5.53.32,14.74-2.51,34,14.55,36.27,29.89.45,3.17,1.53,4.64,4.7,5.12,2.6.4,5,1.83,7.65,2.26,12,2,18.19,9.7,20.43,21,.68,3.41,2.14,4,5.27,4.24,5.55.46,11.47.68,16.47,2.79,17.24,7.26,20.91,19.89,20.47,38.89a7.62,7.62,0,0,1-7.68,7.7c-4.49-.23-6.91-3-7.65-7.25a55.79,55.79,0,0,1-.33-7c-.7-14.53-8.87-21.15-24.58-18.83l9.8,8.22c2.55,2.14,5.22,4.16,7.61,6.47,3.6,3.47,4,8,1.36,11.17s-7.06,3.49-11.27.65a37.47,37.47,0,0,1-3.14-2.47Q541.51,479.8,454.42,407.87c-2.16-1.78-4.18-3.71-6.58-5.86-2.92,11.4-5.77,22.5-8.6,33.62a17.9,17.9,0,0,1-.53,2.46c-10.19,31.41-23.9,61-44.67,87-9.47,11.85-19.21,23.47-32.47,31.44a84.37,84.37,0,0,0-9.54,6.39c-1.1.88-2.12,3.12-1.78,4.35,6.94,25.27,14.71,50.27,31.32,71.21,6.92,8.72,14.65,16.82,22.33,24.9,19.24,20.24,43.59,31.19,70.23,37.6,5,1.19,10.3.95,15.46,1.36-2.73-3.73-5.78-6.26-8.62-9a422.42,422.42,0,0,1-64.88-79.55A255.25,255.25,0,0,1,403.42,590c-2.19-4.47-.52-8.88,3.27-10.74,3.63-1.78,7.55-.46,10.29,3.57a48.61,48.61,0,0,1,2.43,4.36c3.42,6.28,6.54,12.76,10.3,18.83,23,37.11,52.42,68.63,85.62,96.77.11.09.55-.21.84-.33a2.45,2.45,0,0,0-.24-.93c-1-1.34-2-2.68-3-4-18.27-22.07-33.38-46.12-44.41-72.58-5.24-12.57-10.94-25.2-14.06-38.37-7.28-30.71-13.72-61.58-15.14-93.4-.77-17.19-.63-34.22.28-51.32A50.6,50.6,0,0,0,439.15,435.53ZM451,385.82c16.93-.37,27.53-12.42,22.39-27.93a9.21,9.21,0,0,0-5.22-5c-3.69-1.22-7.76-1.28-11.85-1.85C454.58,362.64,452.84,374.05,451,385.82Zm468.07.86c-1-17.41-1.94-34.92-2.92-52.42a14.51,14.51,0,0,0-4.26,5.7,72.57,72.57,0,0,0-4.88,31.67C907.57,379.73,911,384.31,919.11,386.68ZM457.28,290.4c14.9-7.87,15.78-9.91,9.29-22.92-2-4.09-4.62-8.17-9.29-10.54Zm461.87-18c-6.58,3.88-10.93,16.08-10.46,28.93A19.44,19.44,0,0,0,916,316.52C917.05,301.43,918.09,287.09,919.15,272.43Zm4-17.27,5.23-30.59c-6,.82-14.84,7.4-15.51,11.58C911.5,244.45,917.28,249,923.12,255.16ZM457.79,330.9c10,1,15.54-1.32,16.31-6.43.86-5.74-6.54-12.52-16-14.43-.1,1.29-.29,2.55-.3,3.82C457.78,319.45,457.79,325,457.79,330.9Zm73.57,120.19c1-8.16-3.67-19.37-10.16-22.79-5-2.62-10.67-1.71-17.34.08Zm16.79,13.83,26.28,21.73C574.05,472.25,562.2,462.6,548.15,464.92Zm-62-51.18c.52-11.16-10-18.26-17.94-14.78Zm278,98.59,17.07-15.27C770.94,492.84,764,502.69,764.14,512.33Zm76.45-62.21L860.49,435C850.13,433.28,844.31,437.62,840.59,450.12ZM455,232.22l1.43,1c2.1-2,6.08-4.15,5.93-6-.34-4.18-3.08-7.82-8.22-9C454.4,223.08,454.68,227.65,455,232.22ZM591.29,500.55,607.2,513.7C606.23,503.87,605.08,502.91,591.29,500.55Zm121.12,92.2,1.31,2.23a96.51,96.51,0,0,0,10.2-4.26c1-.53,1.07-2.74,1.56-4.19-1.51-.27-3.49-1.29-4.43-.69A96.12,96.12,0,0,0,712.41,592.75Zm92.34-117.7,1.18,1.38,13.81-11.22-1.34-1.6Z" transform="translate(-264.1 -48.34)"/>
    <path d="M956.6,174.11c26.88,1.87,52.56,6.79,77.21,16.36,22.94,8.9,40.89,24.21,51.74,46.08,6,12,8.07,25.91,12,38.94,6.25,20.65,3.13,41.16-.93,61.64-1.09,5.46-5,8.51-9.31,7.59s-6.7-4.88-5.87-10.51q1.56-10.62,3.33-21.19c2.83-16.81-1.69-32.77-6.17-48.56a121.28,121.28,0,0,0-11-27.09c-8.74-15.2-22.28-25.65-38.55-31.74-11.13-4.16-23-6.19-34.41-9.77-13-4.08-26.39-4.86-39.74-6.3a14.93,14.93,0,0,1-4.35-1c-3.64-1.54-5.49-4.37-4.81-8.34.65-3.76,3.21-5.71,6.93-6.07A37.14,37.14,0,0,1,956.6,174.11Z" transform="translate(-264.1 -48.34)"/>
    <path d="M616,58.58c-2.57,14-4.16,28.28-8.08,41.89-2.4,8.38-8,16-12.79,23.52-13.91,21.83-34.62,34.63-58.69,42.31-10.75,3.43-21.9,5.62-32.9,8.26-1.91.46-4.4,1.14-5.83.33-2.51-1.42-5.6-3.64-6.19-6.06-.51-2.14,1.63-5.41,3.44-7.43,1.24-1.39,3.88-1.69,6-2.14,15.94-3.48,31.9-6.74,46.64-14.25a95.4,95.4,0,0,0,36-31.45c10.7-15.49,14.77-32.47,15.09-50.8a41.07,41.07,0,0,1,.42-6c.94-5.67,4.31-8.84,8.74-8.4s7,4.06,6.81,9.95Z" transform="translate(-264.1 -48.34)"/>
    <path d="M538.24,494.65c2.41.37,3.48.31,4.36.7,12.5,5.39,25.78,9.74,35.54,19.64,14.58,14.79,28.5,30.23,42.58,45.5,4.09,4.45,4.2,9.3.86,12.42-3.55,3.32-8.16,2.62-12.6-2.19-5-5.38-9.63-11-14.64-16.36-9.11-9.68-17.72-20-27.81-28.52-6.94-5.87-16-9.22-24.15-13.68-2.47-1.36-5.7-2.09-7.25-4.13s-2.8-5.82-2.17-8.32C533.52,497.47,536.8,495.92,538.24,494.65Z" transform="translate(-264.1 -48.34)"/><path d="M875.46,174c-32.17-2-59.27-11.66-82.37-31.46a14.77,14.77,0,0,1-3.57-4.09c-1.72-3.28-1.31-6.56,1.56-9.06,3.44-3,7.08-2.21,10.55.11,7.58,5.08,14.87,10.66,22.76,15.19,14.83,8.51,31.24,12,48.12,13.52.66.05,1.33,0,2,.09,5.46.5,9,3.92,8.63,8.4A7.94,7.94,0,0,1,875.46,174Z" transform="translate(-264.1 -48.34)"/>
    <path d="M815,514.23c1.83,1.55,4.81,2.92,5.61,5.08a9.87,9.87,0,0,1-1.07,7.75c-1.53,2.35-4.33,4.21-7,5.47-19,9.07-33.23,23.63-46.31,39.59a83,83,0,0,1-6,6.73c-3.7,3.61-8,3.94-11.18,1.09s-3.56-7.41-.34-11.24c7-8.28,14.28-16.28,21.42-24.42C781,532,795.13,524.41,809,516.42,810.5,515.53,812.35,515.18,815,514.23Z" transform="translate(-264.1 -48.34)"/>
    <path d="M590.82,571.09c12.61,5.76,25.34,11.29,37.68,17.58,1.6.81,2.35,6,1.41,8.3-.84,2-4.49,3.15-7.11,4.09-1.15.41-2.89-.45-4.25-1-9.68-4-19.38-7.88-28.94-12.1a14,14,0,0,1-6-4.82c-3-4.82.88-10.73,6.69-10.8C590.45,571.92,590.63,571.5,590.82,571.09Z" transform="translate(-264.1 -48.34)"/>
</svg>
